<?xml version="1.0" encoding="utf-8" standalone="no"?>
<!DOCTYPE svg PUBLIC "-//W3C//DTD SVG 1.1//EN"
  "http://www.w3.org/Graphics/SVG/1.1/DTD/svg11.dtd">
<svg xmlns:xlink="http://www.w3.org/1999/xlink" width="629.689989pt" height="353.033931pt" viewBox="0 0 629.689989 353.033931" xmlns="http://www.w3.org/2000/svg" version="1.1">
 <metadata>
  <rdf:RDF xmlns:dc="http://purl.org/dc/elements/1.1/" xmlns:cc="http://creativecommons.org/ns#" xmlns:rdf="http://www.w3.org/1999/02/22-rdf-syntax-ns#">
   <cc:Work>
    <dc:type rdf:resource="http://purl.org/dc/dcmitype/StillImage"/>
    <dc:date>2026-05-08T16:45:17.720508</dc:date>
    <dc:format>image/svg+xml</dc:format>
    <dc:creator>
     <cc:Agent>
      <dc:title>Matplotlib v3.10.9, https://matplotlib.org/</dc:title>
     </cc:Agent>
    </dc:creator>
   </cc:Work>
  </rdf:RDF>
 </metadata>
 <defs>
  <style type="text/css">*{stroke-linejoin: round; stroke-linecap: butt}</style>
 </defs>
 <g id="figure_1">
  <g id="patch_1">
   <path d="M 0 353.033931 
L 629.689989 353.033931 
L 629.689989 0 
L 0 0 
z
" style="fill: #ffffff"/>
  </g>
  <g id="axes_1">
   <g id="patch_2">
    <path d="M 40.085 320.531306 
L 570.185 320.531306 
L 570.185 32.243306 
L 40.085 32.243306 
z
" style="fill: #ffffff"/>
   </g>
   <g id="patch_3">
    <path d="M 64.180455 320.531306 
L 96.071497 320.531306 
L 96.071497 179.590506 
L 64.180455 179.590506 
z
" clip-path="url(#pa7e205ac75)" style="fill: #aaaaaa; opacity: 0.92; stroke: #ffffff; stroke-width: 0.5; stroke-linejoin: miter"/>
   </g>
   <g id="patch_4">
    <path d="M 241.352914 320.531306 
L 273.243957 320.531306 
L 273.243957 205.216106 
L 241.352914 205.216106 
z
" clip-path="url(#pa7e205ac75)" style="fill: #aaaaaa; opacity: 0.92; stroke: #ffffff; stroke-width: 0.5; stroke-linejoin: miter"/>
   </g>
   <g id="patch_5">
    <path d="M 418.525374 320.531306 
L 450.416417 320.531306 
L 450.416417 320.531306 
L 418.525374 320.531306 
z
" clip-path="url(#pa7e205ac75)" style="fill: #aaaaaa; opacity: 0.92; stroke: #ffffff; stroke-width: 0.5; stroke-linejoin: miter"/>
   </g>
   <g id="patch_6">
    <path d="M 96.071497 320.531306 
L 127.96254 320.531306 
L 127.96254 102.713706 
L 96.071497 102.713706 
z
" clip-path="url(#pa7e205ac75)" style="fill: #1f77b4; opacity: 0.92; stroke: #ffffff; stroke-width: 0.5; stroke-linejoin: miter"/>
   </g>
   <g id="patch_7">
    <path d="M 273.243957 320.531306 
L 305.135 320.531306 
L 305.135 211.622506 
L 273.243957 211.622506 
z
" clip-path="url(#pa7e205ac75)" style="fill: #1f77b4; opacity: 0.92; stroke: #ffffff; stroke-width: 0.5; stroke-linejoin: miter"/>
   </g>
   <g id="patch_8">
    <path d="M 450.416417 320.531306 
L 482.30746 320.531306 
L 482.30746 320.531306 
L 450.416417 320.531306 
z
" clip-path="url(#pa7e205ac75)" style="fill: #1f77b4; opacity: 0.92; stroke: #ffffff; stroke-width: 0.5; stroke-linejoin: miter"/>
   </g>
   <g id="patch_9">
    <path d="M 127.96254 320.531306 
L 159.853583 320.531306 
L 159.853583 173.184106 
L 127.96254 173.184106 
z
" clip-path="url(#pa7e205ac75)" style="fill: #2ca02c; opacity: 0.92; stroke: #ffffff; stroke-width: 0.5; stroke-linejoin: miter"/>
   </g>
   <g id="patch_10">
    <path d="M 305.135 320.531306 
L 337.026043 320.531306 
L 337.026043 192.403306 
L 305.135 192.403306 
z
" clip-path="url(#pa7e205ac75)" style="fill: #2ca02c; opacity: 0.92; stroke: #ffffff; stroke-width: 0.5; stroke-linejoin: miter"/>
   </g>
   <g id="patch_11">
    <path d="M 482.30746 320.531306 
L 514.198503 320.531306 
L 514.198503 166.777706 
L 482.30746 166.777706 
z
" clip-path="url(#pa7e205ac75)" style="fill: #2ca02c; opacity: 0.92; stroke: #ffffff; stroke-width: 0.5; stroke-linejoin: miter"/>
   </g>
   <g id="patch_12">
    <path d="M 159.853583 320.531306 
L 191.744626 320.531306 
L 191.744626 96.307306 
L 159.853583 96.307306 
z
" clip-path="url(#pa7e205ac75)" style="fill: #d62728; opacity: 0.92; stroke: #ffffff; stroke-width: 0.5; stroke-linejoin: miter"/>
   </g>
   <g id="patch_13">
    <path d="M 337.026043 320.531306 
L 368.917086 320.531306 
L 368.917086 179.590506 
L 337.026043 179.590506 
z
" clip-path="url(#pa7e205ac75)" style="fill: #d62728; opacity: 0.92; stroke: #ffffff; stroke-width: 0.5; stroke-linejoin: miter"/>
   </g>
   <g id="patch_14">
    <path d="M 514.198503 320.531306 
L 546.089545 320.531306 
L 546.089545 179.590506 
L 514.198503 179.590506 
z
" clip-path="url(#pa7e205ac75)" style="fill: #d62728; opacity: 0.92; stroke: #ffffff; stroke-width: 0.5; stroke-linejoin: miter"/>
   </g>
   <g id="matplotlib.axis_1">
    <g id="xtick_1">
     <g id="line2d_1">
      <path d="M 127.96254 320.531306 
L 127.96254 32.243306 
" clip-path="url(#pa7e205ac75)" style="fill: none; stroke-dasharray: 2.96,1.28; stroke-dashoffset: 0; stroke: #b0b0b0; stroke-opacity: 0.25; stroke-width: 0.8"/>
     </g>
     <g id="line2d_2">
      <defs>
       <path id="m9c5d02be70" d="M 0 0 
L 0 3.5 
" style="stroke: #000000; stroke-width: 0.8"/>
      </defs>
      <g>
       <use xlink:href="#m9c5d02be70" x="127.96254" y="320.531306" style="stroke: #000000; stroke-width: 0.8"/>
      </g>
     </g>
     <g id="text_1">
      <!-- A4: git commit + push -->
      <g transform="translate(84.570587 334.008494) scale(0.09 -0.09)">
       <defs>
        <path id="Helvetica-41" d="M 2844 1881 
L 2147 3909 
L 1406 1881 
L 2844 1881 
z
M 1822 4591 
L 2525 4591 
L 4191 0 
L 3509 0 
L 3044 1375 
L 1228 1375 
L 731 0 
L 94 0 
L 1822 4591 
z
" transform="scale(0.015625)"/>
        <path id="Helvetica-34" d="M 2116 1584 
L 2116 3613 
L 681 1584 
L 2116 1584 
z
M 2125 0 
L 2125 1094 
L 163 1094 
L 163 1644 
L 2213 4488 
L 2688 4488 
L 2688 1584 
L 3347 1584 
L 3347 1094 
L 2688 1094 
L 2688 0 
L 2125 0 
z
" transform="scale(0.015625)"/>
        <path id="Helvetica-3a" d="M 709 3303 
L 1363 3303 
L 1363 2622 
L 709 2622 
L 709 3303 
z
M 709 681 
L 1363 681 
L 1363 0 
L 709 0 
L 709 681 
z
" transform="scale(0.015625)"/>
        <path id="Helvetica-20" transform="scale(0.015625)"/>
        <path id="Helvetica-67" d="M 1594 3406 
Q 1988 3406 2281 3213 
Q 2441 3103 2606 2894 
L 2606 3316 
L 3125 3316 
L 3125 272 
Q 3125 -366 2938 -734 
Q 2588 -1416 1616 -1416 
Q 1075 -1416 706 -1173 
Q 338 -931 294 -416 
L 866 -416 
Q 906 -641 1028 -763 
Q 1219 -950 1628 -950 
Q 2275 -950 2475 -494 
Q 2594 -225 2584 466 
Q 2416 209 2178 84 
Q 1941 -41 1550 -41 
Q 1006 -41 598 345 
Q 191 731 191 1622 
Q 191 2463 602 2934 
Q 1013 3406 1594 3406 
z
M 2606 1688 
Q 2606 2309 2350 2609 
Q 2094 2909 1697 2909 
Q 1103 2909 884 2353 
Q 769 2056 769 1575 
Q 769 1009 998 714 
Q 1228 419 1616 419 
Q 2222 419 2469 966 
Q 2606 1275 2606 1688 
z
M 1659 3428 
L 1659 3428 
z
" transform="scale(0.015625)"/>
        <path id="Helvetica-69" d="M 413 3331 
L 984 3331 
L 984 0 
L 413 0 
L 413 3331 
z
M 413 4591 
L 984 4591 
L 984 3953 
L 413 3953 
L 413 4591 
z
" transform="scale(0.015625)"/>
        <path id="Helvetica-74" d="M 525 4281 
L 1094 4281 
L 1094 3347 
L 1628 3347 
L 1628 2888 
L 1094 2888 
L 1094 703 
Q 1094 528 1213 469 
Q 1278 434 1431 434 
Q 1472 434 1519 436 
Q 1566 438 1628 444 
L 1628 0 
Q 1531 -28 1426 -40 
Q 1322 -53 1200 -53 
Q 806 -53 665 148 
Q 525 350 525 672 
L 525 2888 
L 72 2888 
L 72 3347 
L 525 3347 
L 525 4281 
z
" transform="scale(0.015625)"/>
        <path id="Helvetica-63" d="M 1703 3444 
Q 2269 3444 2623 3169 
Q 2978 2894 3050 2222 
L 2503 2222 
Q 2453 2531 2275 2736 
Q 2097 2941 1703 2941 
Q 1166 2941 934 2416 
Q 784 2075 784 1575 
Q 784 1072 996 728 
Q 1209 384 1666 384 
Q 2016 384 2220 598 
Q 2425 813 2503 1184 
L 3050 1184 
Q 2956 519 2581 211 
Q 2206 -97 1622 -97 
Q 966 -97 575 383 
Q 184 863 184 1581 
Q 184 2463 612 2953 
Q 1041 3444 1703 3444 
z
M 1616 3428 
L 1616 3428 
z
" transform="scale(0.015625)"/>
        <path id="Helvetica-6f" d="M 1741 363 
Q 2300 363 2508 786 
Q 2716 1209 2716 1728 
Q 2716 2197 2566 2491 
Q 2328 2953 1747 2953 
Q 1231 2953 997 2559 
Q 763 2166 763 1609 
Q 763 1075 997 719 
Q 1231 363 1741 363 
z
M 1763 3444 
Q 2409 3444 2856 3012 
Q 3303 2581 3303 1744 
Q 3303 934 2909 406 
Q 2516 -122 1688 -122 
Q 997 -122 590 345 
Q 184 813 184 1600 
Q 184 2444 612 2944 
Q 1041 3444 1763 3444 
z
M 1744 3428 
L 1744 3428 
z
" transform="scale(0.015625)"/>
        <path id="Helvetica-6d" d="M 413 3347 
L 969 3347 
L 969 2872 
Q 1169 3119 1331 3231 
Q 1609 3422 1963 3422 
Q 2363 3422 2606 3225 
Q 2744 3113 2856 2894 
Q 3044 3163 3297 3292 
Q 3550 3422 3866 3422 
Q 4541 3422 4784 2934 
Q 4916 2672 4916 2228 
L 4916 0 
L 4331 0 
L 4331 2325 
Q 4331 2659 4164 2784 
Q 3997 2909 3756 2909 
Q 3425 2909 3186 2687 
Q 2947 2466 2947 1947 
L 2947 0 
L 2375 0 
L 2375 2184 
Q 2375 2525 2294 2681 
Q 2166 2916 1816 2916 
Q 1497 2916 1236 2669 
Q 975 2422 975 1775 
L 975 0 
L 413 0 
L 413 3347 
z
" transform="scale(0.015625)"/>
        <path id="Helvetica-2b" d="M 288 1369 
L 288 1894 
L 1650 1894 
L 1650 3266 
L 2184 3266 
L 2184 1894 
L 3547 1894 
L 3547 1369 
L 2184 1369 
L 2184 0 
L 1650 0 
L 1650 1369 
L 288 1369 
z
" transform="scale(0.015625)"/>
        <path id="Helvetica-70" d="M 1825 378 
Q 2219 378 2480 708 
Q 2741 1038 2741 1694 
Q 2741 2094 2625 2381 
Q 2406 2934 1825 2934 
Q 1241 2934 1025 2350 
Q 909 2038 909 1556 
Q 909 1169 1025 897 
Q 1244 378 1825 378 
z
M 369 3331 
L 916 3331 
L 916 2888 
Q 1084 3116 1284 3241 
Q 1569 3428 1953 3428 
Q 2522 3428 2919 2992 
Q 3316 2556 3316 1747 
Q 3316 653 2744 184 
Q 2381 -113 1900 -113 
Q 1522 -113 1266 53 
Q 1116 147 931 375 
L 931 -1334 
L 369 -1334 
L 369 3331 
z
" transform="scale(0.015625)"/>
        <path id="Helvetica-75" d="M 975 3347 
L 975 1125 
Q 975 869 1056 706 
Q 1206 406 1616 406 
Q 2203 406 2416 931 
Q 2531 1213 2531 1703 
L 2531 3347 
L 3094 3347 
L 3094 0 
L 2563 0 
L 2569 494 
Q 2459 303 2297 172 
Q 1975 -91 1516 -91 
Q 800 -91 541 388 
Q 400 644 400 1072 
L 400 3347 
L 975 3347 
z
M 1747 3428 
L 1747 3428 
z
" transform="scale(0.015625)"/>
        <path id="Helvetica-73" d="M 747 1050 
Q 772 769 888 619 
Q 1100 347 1625 347 
Q 1938 347 2175 483 
Q 2413 619 2413 903 
Q 2413 1119 2222 1231 
Q 2100 1300 1741 1391 
L 1294 1503 
Q 866 1609 663 1741 
Q 300 1969 300 2372 
Q 300 2847 642 3140 
Q 984 3434 1563 3434 
Q 2319 3434 2653 2991 
Q 2863 2709 2856 2384 
L 2325 2384 
Q 2309 2575 2191 2731 
Q 1997 2953 1519 2953 
Q 1200 2953 1036 2831 
Q 872 2709 872 2509 
Q 872 2291 1088 2159 
Q 1213 2081 1456 2022 
L 1828 1931 
Q 2434 1784 2641 1647 
Q 2969 1431 2969 969 
Q 2969 522 2630 197 
Q 2291 -128 1597 -128 
Q 850 -128 539 211 
Q 228 550 206 1050 
L 747 1050 
z
M 1578 3428 
L 1578 3428 
z
" transform="scale(0.015625)"/>
        <path id="Helvetica-68" d="M 413 4606 
L 975 4606 
L 975 2894 
Q 1175 3147 1334 3250 
Q 1606 3428 2013 3428 
Q 2741 3428 3000 2919 
Q 3141 2641 3141 2147 
L 3141 0 
L 2563 0 
L 2563 2109 
Q 2563 2478 2469 2650 
Q 2316 2925 1894 2925 
Q 1544 2925 1259 2684 
Q 975 2444 975 1775 
L 975 0 
L 413 0 
L 413 4606 
z
" transform="scale(0.015625)"/>
       </defs>
       <use xlink:href="#Helvetica-41"/>
       <use xlink:href="#Helvetica-34" transform="translate(66.699219 0)"/>
       <use xlink:href="#Helvetica-3a" transform="translate(122.314453 0)"/>
       <use xlink:href="#Helvetica-20" transform="translate(150.097656 0)"/>
       <use xlink:href="#Helvetica-67" transform="translate(177.880859 0)"/>
       <use xlink:href="#Helvetica-69" transform="translate(233.496094 0)"/>
       <use xlink:href="#Helvetica-74" transform="translate(255.712891 0)"/>
       <use xlink:href="#Helvetica-20" transform="translate(283.496094 0)"/>
       <use xlink:href="#Helvetica-63" transform="translate(311.279297 0)"/>
       <use xlink:href="#Helvetica-6f" transform="translate(361.279297 0)"/>
       <use xlink:href="#Helvetica-6d" transform="translate(416.894531 0)"/>
       <use xlink:href="#Helvetica-6d" transform="translate(500.195312 0)"/>
       <use xlink:href="#Helvetica-69" transform="translate(583.496094 0)"/>
       <use xlink:href="#Helvetica-74" transform="translate(605.712891 0)"/>
       <use xlink:href="#Helvetica-20" transform="translate(633.496094 0)"/>
       <use xlink:href="#Helvetica-2b" transform="translate(661.279297 0)"/>
       <use xlink:href="#Helvetica-20" transform="translate(719.677734 0)"/>
       <use xlink:href="#Helvetica-70" transform="translate(747.460938 0)"/>
       <use xlink:href="#Helvetica-75" transform="translate(803.076172 0)"/>
       <use xlink:href="#Helvetica-73" transform="translate(858.691406 0)"/>
       <use xlink:href="#Helvetica-68" transform="translate(908.691406 0)"/>
      </g>
      <!-- (SHOULD, multi-step) -->
      <g transform="translate(84.207774 343.957994) scale(0.09 -0.09)">
       <defs>
        <path id="Helvetica-28" d="M 1894 4666 
Q 1403 3713 1256 3263 
Q 1034 2578 1034 1681 
Q 1034 775 1288 25 
Q 1444 -438 1903 -1306 
L 1525 -1306 
Q 1069 -594 959 -397 
Q 850 -200 722 138 
Q 547 600 478 1125 
Q 444 1397 444 1644 
Q 444 2569 734 3291 
Q 919 3750 1503 4666 
L 1894 4666 
z
" transform="scale(0.015625)"/>
        <path id="Helvetica-53" d="M 894 1481 
Q 916 1091 1078 847 
Q 1388 391 2169 391 
Q 2519 391 2806 491 
Q 3363 684 3363 1184 
Q 3363 1559 3128 1719 
Q 2891 1875 2384 1991 
L 1763 2131 
Q 1153 2269 900 2434 
Q 463 2722 463 3294 
Q 463 3913 891 4309 
Q 1319 4706 2103 4706 
Q 2825 4706 3329 4357 
Q 3834 4009 3834 3244 
L 3250 3244 
Q 3203 3613 3050 3809 
Q 2766 4169 2084 4169 
Q 1534 4169 1293 3937 
Q 1053 3706 1053 3400 
Q 1053 3063 1334 2906 
Q 1519 2806 2169 2656 
L 2813 2509 
Q 3278 2403 3531 2219 
Q 3969 1897 3969 1284 
Q 3969 522 3414 194 
Q 2859 -134 2125 -134 
Q 1269 -134 784 303 
Q 300 738 309 1481 
L 894 1481 
z
M 2150 4716 
L 2150 4716 
z
" transform="scale(0.015625)"/>
        <path id="Helvetica-48" d="M 503 4591 
L 1131 4591 
L 1131 2694 
L 3519 2694 
L 3519 4591 
L 4147 4591 
L 4147 0 
L 3519 0 
L 3519 2147 
L 1131 2147 
L 1131 0 
L 503 0 
L 503 4591 
z
" transform="scale(0.015625)"/>
        <path id="Helvetica-4f" d="M 2469 4716 
Q 3684 4716 4269 3934 
Q 4725 3325 4725 2375 
Q 4725 1347 4203 666 
Q 3591 -134 2456 -134 
Q 1397 -134 791 566 
Q 250 1241 250 2272 
Q 250 3203 713 3866 
Q 1306 4716 2469 4716 
z
M 2531 422 
Q 3353 422 3720 1011 
Q 4088 1600 4088 2366 
Q 4088 3175 3664 3669 
Q 3241 4163 2506 4163 
Q 1794 4163 1344 3673 
Q 894 3184 894 2231 
Q 894 1469 1280 945 
Q 1666 422 2531 422 
z
M 2488 4716 
L 2488 4716 
z
" transform="scale(0.015625)"/>
        <path id="Helvetica-55" d="M 1163 4591 
L 1163 1753 
Q 1163 1253 1350 922 
Q 1628 422 2288 422 
Q 3078 422 3363 963 
Q 3516 1256 3516 1753 
L 3516 4591 
L 4147 4591 
L 4147 2013 
Q 4147 1166 3919 709 
Q 3500 -122 2338 -122 
Q 1175 -122 759 709 
Q 531 1166 531 2013 
L 531 4591 
L 1163 4591 
z
M 2341 4591 
L 2341 4591 
z
" transform="scale(0.015625)"/>
        <path id="Helvetica-4c" d="M 488 4591 
L 1109 4591 
L 1109 547 
L 3434 547 
L 3434 0 
L 488 0 
L 488 4591 
z
" transform="scale(0.015625)"/>
        <path id="Helvetica-44" d="M 2250 531 
Q 2566 531 2769 597 
Q 3131 719 3363 1066 
Q 3547 1344 3628 1778 
Q 3675 2038 3675 2259 
Q 3675 3113 3336 3584 
Q 2997 4056 2244 4056 
L 1141 4056 
L 1141 531 
L 2250 531 
z
M 516 4591 
L 2375 4591 
Q 3322 4591 3844 3919 
Q 4309 3313 4309 2366 
Q 4309 1634 4034 1044 
Q 3550 0 2369 0 
L 516 0 
L 516 4591 
z
" transform="scale(0.015625)"/>
        <path id="Helvetica-2c" d="M 531 -653 
Q 747 -616 834 -350 
Q 881 -209 881 -78 
Q 881 -56 879 -39 
Q 878 -22 872 0 
L 531 0 
L 531 681 
L 1200 681 
L 1200 50 
Q 1200 -322 1050 -603 
Q 900 -884 531 -950 
L 531 -653 
z
" transform="scale(0.015625)"/>
        <path id="Helvetica-6c" d="M 428 4591 
L 991 4591 
L 991 0 
L 428 0 
L 428 4591 
z
" transform="scale(0.015625)"/>
        <path id="Helvetica-2d" d="M 266 2072 
L 1834 2072 
L 1834 1494 
L 266 1494 
L 266 2072 
z
" transform="scale(0.015625)"/>
        <path id="Helvetica-65" d="M 1806 3422 
Q 2163 3422 2497 3255 
Q 2831 3088 3006 2822 
Q 3175 2569 3231 2231 
Q 3281 2000 3281 1494 
L 828 1494 
Q 844 984 1069 676 
Q 1294 369 1766 369 
Q 2206 369 2469 659 
Q 2619 828 2681 1050 
L 3234 1050 
Q 3213 866 3089 639 
Q 2966 413 2813 269 
Q 2556 19 2178 -69 
Q 1975 -119 1719 -119 
Q 1094 -119 659 336 
Q 225 791 225 1609 
Q 225 2416 662 2919 
Q 1100 3422 1806 3422 
z
M 2703 1941 
Q 2669 2306 2544 2525 
Q 2313 2931 1772 2931 
Q 1384 2931 1121 2651 
Q 859 2372 844 1941 
L 2703 1941 
z
M 1753 3428 
L 1753 3428 
z
" transform="scale(0.015625)"/>
        <path id="Helvetica-29" d="M 222 -1306 
Q 719 -338 863 106 
Q 1081 778 1081 1681 
Q 1081 2584 828 3334 
Q 672 3797 213 4666 
L 591 4666 
Q 1072 3897 1173 3717 
Q 1275 3538 1394 3222 
Q 1544 2831 1608 2450 
Q 1672 2069 1672 1716 
Q 1672 791 1378 66 
Q 1194 -400 613 -1306 
L 222 -1306 
z
" transform="scale(0.015625)"/>
       </defs>
       <use xlink:href="#Helvetica-28"/>
       <use xlink:href="#Helvetica-53" transform="translate(33.300781 0)"/>
       <use xlink:href="#Helvetica-48" transform="translate(100 0)"/>
       <use xlink:href="#Helvetica-4f" transform="translate(172.216797 0)"/>
       <use xlink:href="#Helvetica-55" transform="translate(250 0)"/>
       <use xlink:href="#Helvetica-4c" transform="translate(322.216797 0)"/>
       <use xlink:href="#Helvetica-44" transform="translate(377.832031 0)"/>
       <use xlink:href="#Helvetica-2c" transform="translate(450.048828 0)"/>
       <use xlink:href="#Helvetica-20" transform="translate(477.832031 0)"/>
       <use xlink:href="#Helvetica-6d" transform="translate(505.615234 0)"/>
       <use xlink:href="#Helvetica-75" transform="translate(588.916016 0)"/>
       <use xlink:href="#Helvetica-6c" transform="translate(644.53125 0)"/>
       <use xlink:href="#Helvetica-74" transform="translate(666.748047 0)"/>
       <use xlink:href="#Helvetica-69" transform="translate(694.53125 0)"/>
       <use xlink:href="#Helvetica-2d" transform="translate(716.748047 0)"/>
       <use xlink:href="#Helvetica-73" transform="translate(750.048828 0)"/>
       <use xlink:href="#Helvetica-74" transform="translate(800.048828 0)"/>
       <use xlink:href="#Helvetica-65" transform="translate(827.832031 0)"/>
       <use xlink:href="#Helvetica-70" transform="translate(883.447266 0)"/>
       <use xlink:href="#Helvetica-29" transform="translate(939.0625 0)"/>
      </g>
     </g>
    </g>
    <g id="xtick_2">
     <g id="line2d_3">
      <path d="M 305.135 320.531306 
L 305.135 32.243306 
" clip-path="url(#pa7e205ac75)" style="fill: none; stroke-dasharray: 2.96,1.28; stroke-dashoffset: 0; stroke: #b0b0b0; stroke-opacity: 0.25; stroke-width: 0.8"/>
     </g>
     <g id="line2d_4">
      <g>
       <use xlink:href="#m9c5d02be70" x="305.135" y="320.531306" style="stroke: #000000; stroke-width: 0.8"/>
      </g>
     </g>
     <g id="text_2">
      <!-- A6: translate + email -->
      <g transform="translate(263.990937 333.9874) scale(0.09 -0.09)">
       <defs>
        <path id="Helvetica-36" d="M 1872 4494 
Q 2622 4494 2917 4105 
Q 3213 3716 3213 3303 
L 2656 3303 
Q 2606 3569 2497 3719 
Q 2294 4000 1881 4000 
Q 1409 4000 1131 3564 
Q 853 3128 822 2316 
Q 1016 2600 1309 2741 
Q 1578 2866 1909 2866 
Q 2472 2866 2890 2506 
Q 3309 2147 3309 1434 
Q 3309 825 2912 354 
Q 2516 -116 1781 -116 
Q 1153 -116 697 361 
Q 241 838 241 1966 
Q 241 2800 444 3381 
Q 834 4494 1872 4494 
z
M 1831 384 
Q 2275 384 2495 682 
Q 2716 981 2716 1388 
Q 2716 1731 2519 2042 
Q 2322 2353 1803 2353 
Q 1441 2353 1167 2112 
Q 894 1872 894 1388 
Q 894 963 1142 673 
Q 1391 384 1831 384 
z
" transform="scale(0.015625)"/>
        <path id="Helvetica-72" d="M 428 3347 
L 963 3347 
L 963 2769 
Q 1028 2938 1284 3180 
Q 1541 3422 1875 3422 
Q 1891 3422 1928 3419 
Q 1966 3416 2056 3406 
L 2056 2813 
Q 2006 2822 1964 2825 
Q 1922 2828 1872 2828 
Q 1447 2828 1219 2554 
Q 991 2281 991 1925 
L 991 0 
L 428 0 
L 428 3347 
z
" transform="scale(0.015625)"/>
        <path id="Helvetica-61" d="M 844 891 
Q 844 647 1022 506 
Q 1200 366 1444 366 
Q 1741 366 2019 503 
Q 2488 731 2488 1250 
L 2488 1703 
Q 2384 1638 2221 1594 
Q 2059 1550 1903 1531 
L 1563 1488 
Q 1256 1447 1103 1359 
Q 844 1213 844 891 
z
M 2206 2028 
Q 2400 2053 2466 2191 
Q 2503 2266 2503 2406 
Q 2503 2694 2298 2823 
Q 2094 2953 1713 2953 
Q 1272 2953 1088 2716 
Q 984 2584 953 2325 
L 428 2325 
Q 444 2944 830 3186 
Q 1216 3428 1725 3428 
Q 2316 3428 2684 3203 
Q 3050 2978 3050 2503 
L 3050 575 
Q 3050 488 3086 434 
Q 3122 381 3238 381 
Q 3275 381 3322 386 
Q 3369 391 3422 400 
L 3422 -16 
Q 3291 -53 3222 -62 
Q 3153 -72 3034 -72 
Q 2744 -72 2613 134 
Q 2544 244 2516 444 
Q 2344 219 2022 53 
Q 1700 -113 1313 -113 
Q 847 -113 551 170 
Q 256 453 256 878 
Q 256 1344 547 1600 
Q 838 1856 1309 1916 
L 2206 2028 
z
M 1741 3428 
L 1741 3428 
z
" transform="scale(0.015625)"/>
        <path id="Helvetica-6e" d="M 413 3347 
L 947 3347 
L 947 2872 
Q 1184 3166 1450 3294 
Q 1716 3422 2041 3422 
Q 2753 3422 3003 2925 
Q 3141 2653 3141 2147 
L 3141 0 
L 2569 0 
L 2569 2109 
Q 2569 2416 2478 2603 
Q 2328 2916 1934 2916 
Q 1734 2916 1606 2875 
Q 1375 2806 1200 2600 
Q 1059 2434 1017 2257 
Q 975 2081 975 1753 
L 975 0 
L 413 0 
L 413 3347 
z
M 1734 3428 
L 1734 3428 
z
" transform="scale(0.015625)"/>
       </defs>
       <use xlink:href="#Helvetica-41"/>
       <use xlink:href="#Helvetica-36" transform="translate(66.699219 0)"/>
       <use xlink:href="#Helvetica-3a" transform="translate(122.314453 0)"/>
       <use xlink:href="#Helvetica-20" transform="translate(150.097656 0)"/>
       <use xlink:href="#Helvetica-74" transform="translate(177.880859 0)"/>
       <use xlink:href="#Helvetica-72" transform="translate(205.664062 0)"/>
       <use xlink:href="#Helvetica-61" transform="translate(238.964844 0)"/>
       <use xlink:href="#Helvetica-6e" transform="translate(294.580078 0)"/>
       <use xlink:href="#Helvetica-73" transform="translate(350.195312 0)"/>
       <use xlink:href="#Helvetica-6c" transform="translate(400.195312 0)"/>
       <use xlink:href="#Helvetica-61" transform="translate(422.412109 0)"/>
       <use xlink:href="#Helvetica-74" transform="translate(478.027344 0)"/>
       <use xlink:href="#Helvetica-65" transform="translate(505.810547 0)"/>
       <use xlink:href="#Helvetica-20" transform="translate(561.425781 0)"/>
       <use xlink:href="#Helvetica-2b" transform="translate(589.208984 0)"/>
       <use xlink:href="#Helvetica-20" transform="translate(647.607422 0)"/>
       <use xlink:href="#Helvetica-65" transform="translate(675.390625 0)"/>
       <use xlink:href="#Helvetica-6d" transform="translate(731.005859 0)"/>
       <use xlink:href="#Helvetica-61" transform="translate(814.306641 0)"/>
       <use xlink:href="#Helvetica-69" transform="translate(869.921875 0)"/>
       <use xlink:href="#Helvetica-6c" transform="translate(892.138672 0)"/>
      </g>
      <!-- (SHOULD, multi-step) -->
      <g transform="translate(261.380234 343.821587) scale(0.09 -0.09)">
       <use xlink:href="#Helvetica-28"/>
       <use xlink:href="#Helvetica-53" transform="translate(33.300781 0)"/>
       <use xlink:href="#Helvetica-48" transform="translate(100 0)"/>
       <use xlink:href="#Helvetica-4f" transform="translate(172.216797 0)"/>
       <use xlink:href="#Helvetica-55" transform="translate(250 0)"/>
       <use xlink:href="#Helvetica-4c" transform="translate(322.216797 0)"/>
       <use xlink:href="#Helvetica-44" transform="translate(377.832031 0)"/>
       <use xlink:href="#Helvetica-2c" transform="translate(450.048828 0)"/>
       <use xlink:href="#Helvetica-20" transform="translate(477.832031 0)"/>
       <use xlink:href="#Helvetica-6d" transform="translate(505.615234 0)"/>
       <use xlink:href="#Helvetica-75" transform="translate(588.916016 0)"/>
       <use xlink:href="#Helvetica-6c" transform="translate(644.53125 0)"/>
       <use xlink:href="#Helvetica-74" transform="translate(666.748047 0)"/>
       <use xlink:href="#Helvetica-69" transform="translate(694.53125 0)"/>
       <use xlink:href="#Helvetica-2d" transform="translate(716.748047 0)"/>
       <use xlink:href="#Helvetica-73" transform="translate(750.048828 0)"/>
       <use xlink:href="#Helvetica-74" transform="translate(800.048828 0)"/>
       <use xlink:href="#Helvetica-65" transform="translate(827.832031 0)"/>
       <use xlink:href="#Helvetica-70" transform="translate(883.447266 0)"/>
       <use xlink:href="#Helvetica-29" transform="translate(939.0625 0)"/>
      </g>
     </g>
    </g>
    <g id="xtick_3">
     <g id="line2d_5">
      <path d="M 482.30746 320.531306 
L 482.30746 32.243306 
" clip-path="url(#pa7e205ac75)" style="fill: none; stroke-dasharray: 2.96,1.28; stroke-dashoffset: 0; stroke: #b0b0b0; stroke-opacity: 0.25; stroke-width: 0.8"/>
     </g>
     <g id="line2d_6">
      <g>
       <use xlink:href="#m9c5d02be70" x="482.30746" y="320.531306" style="stroke: #000000; stroke-width: 0.8"/>
      </g>
     </g>
     <g id="text_3">
      <!-- E2: 翻译 我爱北京天安门 -->
      <g transform="translate(432.552929 333.9874) scale(0.09 -0.09)">
       <defs>
        <path id="Helvetica-45" d="M 547 4591 
L 3894 4591 
L 3894 4028 
L 1153 4028 
L 1153 2634 
L 3688 2634 
L 3688 2103 
L 1153 2103 
L 1153 547 
L 3941 547 
L 3941 0 
L 547 0 
L 547 4591 
z
M 2244 4591 
L 2244 4591 
z
" transform="scale(0.015625)"/>
        <path id="Helvetica-32" d="M 200 0 
Q 231 578 439 1006 
Q 647 1434 1250 1784 
L 1850 2131 
Q 2253 2366 2416 2531 
Q 2672 2791 2672 3125 
Q 2672 3516 2437 3745 
Q 2203 3975 1813 3975 
Q 1234 3975 1013 3538 
Q 894 3303 881 2888 
L 309 2888 
Q 319 3472 525 3841 
Q 891 4491 1816 4491 
Q 2584 4491 2939 4075 
Q 3294 3659 3294 3150 
Q 3294 2613 2916 2231 
Q 2697 2009 2131 1694 
L 1703 1456 
Q 1397 1288 1222 1134 
Q 909 863 828 531 
L 3272 531 
L 3272 0 
L 200 0 
z
" transform="scale(0.015625)"/>
        <path id="HiraginoSansGB-W3-7ffb" d="M 1619 3699 
L 1299 3699 
C 1210 3949 1120 4173 986 4442 
L 685 4326 
C 819 4096 890 3942 973 3699 
L 851 3699 
C 653 3699 474 3712 365 3731 
L 365 3354 
C 480 3373 672 3386 851 3386 
L 1485 3386 
C 1229 3072 1203 3046 979 2842 
C 698 2592 557 2483 192 2253 
C 314 2144 339 2106 416 1958 
C 570 2074 621 2118 685 2170 
C 691 2035 698 1888 698 1696 
L 698 243 
C 698 -26 685 -237 659 -429 
L 1050 -429 
L 1050 -147 
L 2502 -147 
L 2502 -422 
L 2874 -422 
C 2854 -237 2842 6 2842 243 
L 2842 1709 
C 2842 1958 2848 2144 2861 2317 
C 2726 2298 2579 2291 2317 2291 
L 1229 2291 
C 1088 2291 909 2298 838 2298 
C 1242 2662 1376 2816 1638 3200 
C 1632 3130 1626 3008 1619 2848 
L 1619 2694 
C 1619 2630 1606 2509 1600 2438 
L 1958 2438 
C 1952 2490 1939 2630 1939 2694 
L 1939 3053 
C 2438 2758 2739 2554 3014 2310 
L 3181 2598 
C 2906 2797 2637 2963 2304 3136 
C 2093 3245 2067 3258 1939 3322 
L 1939 3386 
L 2662 3386 
C 2835 3386 2957 3379 3059 3360 
L 3059 3725 
C 2970 3706 2854 3699 2662 3699 
L 2534 3699 
C 2675 3910 2771 4077 2944 4435 
L 2618 4576 
C 2490 4198 2394 4006 2195 3699 
L 1939 3699 
L 1939 4691 
C 2291 4755 2534 4819 2880 4934 
L 2624 5261 
C 2093 4992 1408 4864 410 4858 
C 486 4730 525 4640 563 4518 
C 1107 4563 1344 4589 1619 4634 
L 1619 3699 
z
M 1037 1984 
L 1606 1984 
L 1606 1254 
L 1037 1254 
L 1037 1984 
z
M 1920 1984 
L 2509 1984 
L 2509 1254 
L 1920 1254 
L 1920 1984 
z
M 1037 954 
L 1606 954 
L 1606 160 
L 1037 160 
L 1037 954 
z
M 1920 954 
L 2509 954 
L 2509 160 
L 1920 160 
L 1920 954 
z
M 4032 2246 
C 3622 1850 3277 1581 3008 1459 
L 3187 1082 
C 3251 1146 3290 1171 3373 1248 
C 3706 1523 3891 1690 4032 1850 
L 4032 205 
C 4032 96 3974 51 3840 51 
C 3661 51 3418 83 3168 147 
C 3232 -26 3258 -128 3277 -282 
C 3526 -314 3635 -320 3853 -320 
C 4262 -320 4390 -211 4390 141 
L 4390 4474 
C 4390 4704 4397 4851 4416 5018 
C 4294 5005 4173 4998 3968 4998 
L 3514 4998 
C 3283 4998 3168 5005 3034 5030 
L 3034 4614 
C 3174 4640 3296 4646 3482 4646 
L 4032 4646 
L 4032 2246 
z
M 5517 2272 
C 5120 1888 4749 1606 4480 1478 
L 4666 1094 
C 4736 1158 4781 1197 4858 1261 
C 5190 1542 5312 1645 5517 1862 
L 5517 205 
C 5517 90 5466 51 5318 51 
C 5139 51 4902 83 4653 147 
C 4723 -32 4749 -134 4762 -282 
C 5043 -314 5133 -320 5286 -320 
C 5530 -320 5638 -301 5722 -250 
C 5830 -186 5882 -58 5882 141 
L 5882 4474 
C 5882 4704 5888 4864 5907 5018 
C 5786 5005 5670 4998 5459 4998 
L 5030 4998 
C 4800 4998 4685 5005 4550 5030 
L 4550 4614 
C 4691 4640 4813 4646 4998 4646 
L 5517 4646 
L 5517 2272 
z
M 3110 4032 
C 3328 3616 3462 3251 3584 2752 
L 3885 2893 
C 3763 3360 3674 3603 3411 4166 
L 3110 4032 
z
M 4589 4032 
C 4819 3590 4934 3277 5056 2752 
L 5370 2899 
C 5229 3405 5133 3661 4896 4173 
L 4589 4032 
z
" transform="scale(0.015625)"/>
        <path id="HiraginoSansGB-W3-8bd1" d="M 1222 544 
C 1203 346 1171 301 986 211 
L 1184 -154 
C 1318 -83 1344 -70 1562 58 
C 1670 115 1997 301 2138 378 
C 2336 486 2381 512 2534 608 
L 2515 1024 
C 2163 800 1914 659 1638 518 
L 1638 2598 
C 1638 2918 1645 3072 1670 3277 
C 1517 3258 1363 3245 1178 3245 
L 736 3245 
C 499 3245 403 3251 243 3277 
L 243 2829 
C 403 2854 499 2861 710 2861 
L 1222 2861 
L 1222 544 
z
M 4480 2195 
C 4480 2483 4493 2675 4512 2822 
L 4077 2822 
C 4096 2682 4109 2413 4109 2195 
L 3322 2195 
C 3059 2195 2963 2202 2797 2227 
L 2797 1818 
C 2970 1843 3066 1850 3322 1850 
L 4109 1850 
L 4109 1101 
L 3194 1101 
C 2931 1101 2816 1107 2662 1133 
L 2662 710 
C 2803 736 2925 742 3194 742 
L 4109 742 
L 4109 122 
C 4109 -96 4102 -224 4070 -454 
L 4518 -454 
C 4486 -243 4480 -102 4480 115 
L 4480 742 
L 5491 742 
C 5760 742 5875 736 6042 710 
L 6042 1133 
C 5875 1107 5760 1101 5485 1101 
L 4480 1101 
L 4480 1850 
L 5229 1850 
C 5498 1850 5600 1843 5766 1818 
L 5766 2227 
C 5606 2202 5504 2195 5229 2195 
L 4480 2195 
z
M 794 5024 
C 1248 4704 1530 4442 1901 4019 
L 2202 4352 
C 1830 4736 1536 4992 1094 5306 
L 794 5024 
z
M 5459 5043 
C 5306 5018 5133 5011 4858 5011 
L 3322 5011 
C 2944 5011 2701 5018 2496 5037 
L 2496 4646 
C 2618 4659 2752 4666 2867 4666 
C 2886 4666 2918 4666 2957 4666 
C 3277 4173 3450 3994 4013 3526 
C 3610 3232 3002 2950 2342 2771 
C 2477 2669 2541 2579 2611 2426 
C 3245 2643 3904 2976 4333 3309 
C 4787 2976 5184 2771 5971 2451 
C 6067 2637 6125 2714 6227 2784 
C 5350 3072 5062 3206 4621 3507 
C 4998 3834 5139 3987 5472 4467 
C 5523 4531 5542 4563 5587 4634 
C 5651 4730 5683 4768 5728 4819 
L 5459 5043 
z
M 5120 4666 
C 4934 4326 4730 4083 4294 3725 
C 3776 4147 3616 4314 3373 4666 
L 5120 4666 
z
" transform="scale(0.015625)"/>
        <path id="HiraginoSansGB-W3-6211" d="M 5395 3072 
C 5664 3072 5869 3059 6054 3034 
L 6054 3475 
C 5869 3450 5683 3437 5414 3437 
L 4000 3437 
C 3962 3866 3949 4218 3949 4602 
C 3949 4954 3955 5069 3987 5216 
L 3501 5216 
C 3526 5062 3533 4979 3539 4742 
C 3552 4000 3558 3917 3597 3437 
L 2086 3437 
L 2086 4544 
C 2323 4614 2579 4704 2880 4819 
C 3021 4870 3021 4870 3046 4877 
C 3123 4902 3123 4902 3162 4915 
L 2918 5274 
C 2554 4998 1414 4672 435 4557 
C 518 4435 570 4333 614 4205 
C 1043 4275 1216 4314 1683 4435 
L 1683 3437 
L 1011 3437 
C 723 3437 518 3450 352 3475 
L 352 3034 
C 538 3059 742 3072 1011 3072 
L 1683 3072 
L 1683 1939 
C 858 1754 557 1696 339 1696 
L 448 1254 
C 563 1299 634 1312 781 1344 
C 986 1382 1056 1402 1683 1555 
L 1683 218 
C 1683 102 1651 77 1510 77 
C 1293 77 1069 96 710 147 
C 774 -13 800 -128 813 -294 
C 1075 -314 1312 -326 1523 -326 
C 1952 -326 2086 -218 2086 115 
L 2086 1651 
C 2432 1741 2637 1805 3251 2003 
L 3232 2381 
C 2733 2208 2560 2157 2086 2035 
L 2086 3072 
L 3629 3072 
C 3712 2368 3878 1728 4115 1171 
C 3616 691 3110 378 2362 90 
C 2515 -45 2573 -122 2656 -262 
C 3360 64 3808 352 4294 806 
C 4698 77 5133 -358 5466 -358 
C 5786 -358 5939 -83 6106 826 
C 5971 902 5894 960 5760 1101 
C 5658 403 5562 96 5440 96 
C 5261 96 4877 544 4589 1101 
C 4883 1434 5146 1811 5370 2227 
C 5440 2355 5498 2445 5574 2554 
L 5178 2771 
C 5062 2381 4787 1926 4403 1485 
C 4218 1965 4109 2432 4038 3072 
L 5395 3072 
z
M 4397 4870 
C 4851 4435 5037 4218 5350 3789 
L 5658 4051 
C 5344 4467 5082 4742 4685 5082 
L 4397 4870 
z
" transform="scale(0.015625)"/>
        <path id="HiraginoSansGB-W3-7231" d="M 4947 1766 
C 4838 1741 4691 1734 4410 1734 
L 2285 1734 
C 2349 1894 2406 2093 2464 2330 
L 4659 2330 
C 4954 2330 5139 2317 5357 2291 
L 5357 2707 
C 5165 2682 4960 2669 4659 2669 
L 2534 2669 
C 2618 3117 2618 3117 2656 3277 
L 2189 3296 
C 2189 3245 2189 3206 2189 3187 
C 2189 3059 2170 2854 2144 2669 
L 1747 2669 
C 1414 2669 1274 2675 1050 2707 
L 1050 2291 
C 1274 2317 1472 2330 1747 2330 
L 2080 2330 
C 1997 1965 1862 1613 1677 1293 
C 1357 717 986 333 346 -96 
C 474 -173 570 -269 646 -397 
C 1133 -32 1389 211 1677 602 
C 1830 813 1984 1062 2080 1254 
C 2509 858 2784 666 3238 410 
C 2662 147 2189 19 1440 -77 
C 1542 -198 1594 -288 1645 -435 
C 2502 -269 3098 -70 3629 218 
C 4262 -70 4826 -243 5734 -429 
C 5798 -262 5862 -160 5958 -45 
C 5165 64 4646 192 4000 435 
C 4339 653 4691 960 4960 1267 
C 5101 1421 5101 1421 5178 1498 
L 4947 1766 
z
M 4614 1408 
C 4294 1062 4090 896 3610 608 
C 3110 845 2803 1050 2400 1408 
L 4614 1408 
z
M 5344 5389 
C 5101 5293 4742 5216 4090 5139 
C 3232 5030 1946 4954 1005 4954 
C 890 4954 794 4954 627 4954 
C 710 4819 736 4762 787 4602 
C 1024 4602 1171 4608 1325 4614 
C 1338 4614 1344 4614 1363 4614 
C 1427 4512 1568 4198 1664 3942 
L 1696 3866 
L 1267 3866 
C 864 3866 698 3872 480 3898 
C 499 3731 506 3597 506 3424 
L 506 3072 
C 506 2912 493 2765 474 2618 
L 890 2618 
L 890 3526 
L 5523 3526 
L 5523 2637 
L 5939 2637 
C 5920 2758 5907 2899 5907 3040 
L 5907 3411 
C 5907 3603 5914 3731 5933 3891 
C 5754 3872 5536 3866 5210 3866 
L 4595 3866 
C 4717 4038 4787 4154 4979 4518 
L 5082 4698 
L 4685 4813 
C 4570 4467 4442 4230 4192 3866 
L 3533 3866 
C 3398 4288 3354 4410 3194 4704 
C 3885 4749 4698 4845 5306 4960 
C 5517 4998 5517 4998 5651 5024 
L 5344 5389 
z
M 2067 3866 
C 2022 4013 1882 4326 1734 4627 
C 2112 4640 2477 4659 2822 4678 
C 2963 4442 3072 4179 3149 3866 
L 2067 3866 
z
" transform="scale(0.015625)"/>
        <path id="HiraginoSansGB-W3-5317" d="M 2125 3674 
L 1011 3674 
C 730 3674 576 3686 448 3712 
L 448 3251 
C 608 3277 781 3290 1011 3290 
L 2125 3290 
L 2125 1510 
C 1613 1210 1370 1088 858 864 
C 621 762 499 723 294 672 
L 467 230 
C 531 262 614 301 717 352 
C 1299 614 1709 819 2125 1056 
L 2125 256 
C 2125 -38 2112 -237 2086 -422 
L 2579 -422 
C 2547 -237 2541 -51 2541 250 
L 2541 4544 
C 2541 4838 2547 5037 2579 5210 
L 2086 5210 
C 2112 5018 2125 4826 2125 4544 
L 2125 3674 
z
M 3968 4550 
C 3968 4826 3974 5005 4006 5210 
L 3514 5210 
C 3539 5050 3552 4870 3552 4550 
L 3552 326 
C 3552 -109 3757 -205 4685 -205 
C 5338 -205 5606 -154 5760 0 
C 5933 173 6042 602 6080 1293 
C 5901 1350 5818 1382 5677 1478 
C 5670 979 5606 544 5530 397 
C 5440 230 5248 179 4678 179 
C 4365 179 4166 198 4077 230 
C 3994 262 3968 314 3968 429 
L 3968 2566 
C 4755 2995 5216 3302 5747 3738 
C 5862 3834 5894 3853 5984 3923 
L 5664 4275 
C 5568 4154 5453 4045 5293 3910 
C 4902 3590 4416 3264 3968 3014 
L 3968 4550 
z
" transform="scale(0.015625)"/>
        <path id="HiraginoSansGB-W3-4eac" d="M 3514 4544 
C 3283 4902 3136 5088 2861 5389 
L 2490 5184 
C 2701 4973 2861 4787 3027 4544 
L 1120 4544 
C 800 4544 602 4557 410 4589 
L 410 4134 
C 582 4166 749 4173 1094 4173 
L 5344 4173 
C 5702 4173 5875 4166 6042 4134 
L 6042 4589 
C 5856 4557 5651 4544 5331 4544 
L 3514 4544 
z
M 3027 1901 
L 3027 179 
C 3027 51 2976 26 2701 26 
C 2477 26 2272 45 2003 90 
C 2074 -83 2093 -160 2112 -333 
C 2349 -352 2579 -358 2739 -358 
C 3283 -358 3443 -250 3443 122 
L 3443 1901 
L 4557 1901 
C 4800 1901 4973 1894 5139 1882 
C 5126 2042 5120 2170 5120 2394 
L 5120 3117 
C 5120 3366 5126 3494 5146 3648 
C 4998 3629 4864 3622 4557 3622 
L 1773 3622 
C 1504 3622 1382 3629 1203 3648 
C 1222 3456 1229 3366 1229 3117 
L 1229 2394 
C 1229 2163 1222 2042 1203 1875 
C 1389 1894 1517 1901 1773 1901 
L 3027 1901 
z
M 1632 3258 
L 4717 3258 
L 4717 2253 
L 1632 2253 
L 1632 3258 
z
M 1786 1613 
C 1574 1222 1434 1024 1165 755 
C 915 499 723 352 339 122 
C 467 13 512 -38 634 -211 
C 1312 262 1677 646 2144 1395 
L 1786 1613 
z
M 5971 109 
C 5517 640 5082 1082 4467 1632 
L 4179 1376 
C 4819 787 5184 403 5670 -224 
L 5971 109 
z
" transform="scale(0.015625)"/>
        <path id="HiraginoSansGB-W3-5929" d="M 1107 3104 
C 800 3104 563 3117 397 3149 
L 397 2675 
C 576 2707 774 2720 1107 2720 
L 2765 2720 
C 2650 2150 2470 1741 2157 1325 
C 1741 781 1114 358 288 64 
C 429 -83 474 -147 563 -333 
C 1293 -6 1722 269 2131 678 
C 2624 1165 2938 1722 3130 2426 
C 3347 1824 3616 1350 3955 973 
C 4454 410 5037 0 5843 -358 
C 5907 -198 5978 -83 6106 64 
C 5158 410 4467 896 3987 1562 
C 3750 1888 3584 2227 3418 2720 
L 5306 2720 
C 5638 2720 5837 2707 6016 2675 
L 6016 3149 
C 5843 3117 5606 3104 5306 3104 
L 3258 3104 
C 3322 3635 3328 3725 3334 4474 
L 5094 4474 
C 5363 4474 5568 4461 5779 4435 
L 5779 4890 
C 5574 4864 5382 4851 5094 4851 
L 1318 4851 
C 1030 4851 832 4864 640 4890 
L 640 4435 
C 838 4461 1056 4474 1318 4474 
L 2912 4474 
C 2893 3616 2893 3552 2829 3104 
L 1107 3104 
z
" transform="scale(0.015625)"/>
        <path id="HiraginoSansGB-W3-5b89" d="M 5344 2618 
C 5619 2618 5811 2605 5990 2579 
L 5990 3034 
C 5818 3008 5645 2995 5344 2995 
L 2694 2995 
C 2720 3046 2720 3046 2784 3181 
C 2893 3424 2970 3584 3008 3667 
C 3104 3859 3104 3859 3136 3930 
L 2675 4032 
C 2611 3744 2509 3501 2246 2995 
L 1107 2995 
C 800 2995 640 3002 461 3034 
L 461 2579 
C 653 2605 832 2618 1107 2618 
L 2042 2618 
C 1773 2157 1594 1901 1210 1408 
C 1933 1235 2426 1082 2950 877 
C 2694 704 2502 589 2246 480 
C 1664 230 1184 90 448 -38 
C 557 -173 621 -282 685 -442 
C 1114 -352 1306 -301 1562 -218 
C 1990 -77 2438 109 2733 269 
C 2970 397 3181 544 3379 710 
C 4134 410 4787 70 5542 -403 
L 5850 -38 
C 5005 429 4474 678 3680 992 
C 3917 1242 4083 1459 4243 1747 
C 4397 2010 4422 2074 4621 2618 
L 5344 2618 
z
M 4179 2618 
C 4019 2150 3949 1997 3750 1709 
C 3603 1491 3488 1357 3277 1146 
C 2848 1312 2445 1440 1850 1600 
C 2144 2016 2214 2131 2496 2618 
L 4179 2618 
z
M 3456 4614 
C 3315 4934 3213 5114 3008 5395 
L 2650 5203 
C 2816 4979 2893 4858 3014 4614 
L 1216 4614 
C 954 4614 755 4621 531 4646 
C 550 4493 563 4333 563 4160 
L 563 3795 
C 563 3635 550 3494 531 3347 
L 960 3347 
L 960 4243 
L 5434 4243 
L 5434 3347 
L 5862 3347 
C 5837 3488 5830 3635 5830 3795 
L 5830 4160 
C 5830 4346 5837 4499 5862 4646 
C 5632 4621 5440 4614 5178 4614 
L 3456 4614 
z
" transform="scale(0.015625)"/>
        <path id="HiraginoSansGB-W3-95e8" d="M 525 4019 
C 557 3795 563 3629 563 3296 
L 563 250 
C 563 -90 550 -288 525 -486 
L 1018 -486 
C 992 -301 986 -115 986 250 
L 986 3296 
C 986 3642 992 3814 1018 4019 
L 525 4019 
z
M 5402 4659 
L 5402 154 
C 5402 6 5350 -13 5011 -13 
C 4717 -13 4403 13 4019 70 
C 4077 -90 4096 -141 4134 -384 
C 4301 -390 4307 -390 4518 -403 
C 4858 -422 4883 -422 5101 -422 
C 5466 -422 5581 -403 5683 -320 
C 5773 -250 5818 -134 5818 38 
L 5818 4499 
C 5818 4730 5824 4915 5843 5069 
C 5715 5050 5568 5043 5312 5043 
L 2874 5043 
C 2630 5043 2490 5050 2310 5075 
L 2310 4627 
C 2490 4653 2630 4659 2893 4659 
L 5402 4659 
z
M 762 5152 
C 1197 4691 1382 4454 1722 3904 
L 2080 4141 
C 1626 4774 1485 4947 1094 5363 
L 762 5152 
z
" transform="scale(0.015625)"/>
       </defs>
       <use xlink:href="#Helvetica-45"/>
       <use xlink:href="#Helvetica-32" transform="translate(66.699219 0)"/>
       <use xlink:href="#Helvetica-3a" transform="translate(122.314453 0)"/>
       <use xlink:href="#Helvetica-20" transform="translate(150.097656 0)"/>
       <use xlink:href="#HiraginoSansGB-W3-7ffb" transform="translate(177.880859 0)"/>
       <use xlink:href="#HiraginoSansGB-W3-8bd1" transform="translate(277.880844 0)"/>
       <use xlink:href="#Helvetica-20" transform="translate(377.880829 0)"/>
       <use xlink:href="#HiraginoSansGB-W3-6211" transform="translate(405.664032 0)"/>
       <use xlink:href="#HiraginoSansGB-W3-7231" transform="translate(505.664017 0)"/>
       <use xlink:href="#HiraginoSansGB-W3-5317" transform="translate(605.664001 0)"/>
       <use xlink:href="#HiraginoSansGB-W3-4eac" transform="translate(705.663986 0)"/>
       <use xlink:href="#HiraginoSansGB-W3-5929" transform="translate(805.663971 0)"/>
       <use xlink:href="#HiraginoSansGB-W3-5b89" transform="translate(905.663956 0)"/>
       <use xlink:href="#HiraginoSansGB-W3-95e8" transform="translate(1005.66394 0)"/>
      </g>
      <!-- (SHOULDN'T, trivial parametric) -->
      <g transform="translate(418.19371 343.821587) scale(0.09 -0.09)">
       <defs>
        <path id="Helvetica-4e" d="M 488 4591 
L 1222 4591 
L 3541 872 
L 3541 4591 
L 4131 4591 
L 4131 0 
L 3434 0 
L 1081 3716 
L 1081 0 
L 488 0 
L 488 4591 
z
M 2269 4591 
L 2269 4591 
z
" transform="scale(0.015625)"/>
        <path id="Helvetica-27" d="M 1056 4591 
L 953 2753 
L 591 2753 
L 488 4591 
L 1056 4591 
z
" transform="scale(0.015625)"/>
        <path id="Helvetica-54" d="M 3828 4591 
L 3828 4044 
L 2281 4044 
L 2281 0 
L 1650 0 
L 1650 4044 
L 103 4044 
L 103 4591 
L 3828 4591 
z
" transform="scale(0.015625)"/>
        <path id="Helvetica-76" d="M 688 3347 
L 1581 622 
L 2516 3347 
L 3131 3347 
L 1869 0 
L 1269 0 
L 34 3347 
L 688 3347 
z
" transform="scale(0.015625)"/>
       </defs>
       <use xlink:href="#Helvetica-28"/>
       <use xlink:href="#Helvetica-53" transform="translate(33.300781 0)"/>
       <use xlink:href="#Helvetica-48" transform="translate(100 0)"/>
       <use xlink:href="#Helvetica-4f" transform="translate(172.216797 0)"/>
       <use xlink:href="#Helvetica-55" transform="translate(250 0)"/>
       <use xlink:href="#Helvetica-4c" transform="translate(322.216797 0)"/>
       <use xlink:href="#Helvetica-44" transform="translate(377.832031 0)"/>
       <use xlink:href="#Helvetica-4e" transform="translate(450.048828 0)"/>
       <use xlink:href="#Helvetica-27" transform="translate(522.265625 0)"/>
       <use xlink:href="#Helvetica-54" transform="translate(541.357422 0)"/>
       <use xlink:href="#Helvetica-2c" transform="translate(602.441406 0)"/>
       <use xlink:href="#Helvetica-20" transform="translate(630.224609 0)"/>
       <use xlink:href="#Helvetica-74" transform="translate(658.007812 0)"/>
       <use xlink:href="#Helvetica-72" transform="translate(685.791016 0)"/>
       <use xlink:href="#Helvetica-69" transform="translate(719.091797 0)"/>
       <use xlink:href="#Helvetica-76" transform="translate(741.308594 0)"/>
       <use xlink:href="#Helvetica-69" transform="translate(791.308594 0)"/>
       <use xlink:href="#Helvetica-61" transform="translate(813.525391 0)"/>
       <use xlink:href="#Helvetica-6c" transform="translate(869.140625 0)"/>
       <use xlink:href="#Helvetica-20" transform="translate(891.357422 0)"/>
       <use xlink:href="#Helvetica-70" transform="translate(919.140625 0)"/>
       <use xlink:href="#Helvetica-61" transform="translate(974.755859 0)"/>
       <use xlink:href="#Helvetica-72" transform="translate(1030.371094 0)"/>
       <use xlink:href="#Helvetica-61" transform="translate(1063.671875 0)"/>
       <use xlink:href="#Helvetica-6d" transform="translate(1119.287109 0)"/>
       <use xlink:href="#Helvetica-65" transform="translate(1202.587891 0)"/>
       <use xlink:href="#Helvetica-74" transform="translate(1258.203125 0)"/>
       <use xlink:href="#Helvetica-72" transform="translate(1285.986328 0)"/>
       <use xlink:href="#Helvetica-69" transform="translate(1319.287109 0)"/>
       <use xlink:href="#Helvetica-63" transform="translate(1341.503906 0)"/>
       <use xlink:href="#Helvetica-29" transform="translate(1391.503906 0)"/>
      </g>
     </g>
    </g>
   </g>
   <g id="matplotlib.axis_2">
    <g id="ytick_1">
     <g id="line2d_7">
      <path d="M 40.085 320.531306 
L 570.185 320.531306 
" clip-path="url(#pa7e205ac75)" style="fill: none; stroke-dasharray: 2.96,1.28; stroke-dashoffset: 0; stroke: #b0b0b0; stroke-opacity: 0.25; stroke-width: 0.8"/>
     </g>
     <g id="line2d_8">
      <defs>
       <path id="m100f9b59c7" d="M 0 0 
L -3.5 0 
" style="stroke: #000000; stroke-width: 0.8"/>
      </defs>
      <g>
       <use xlink:href="#m100f9b59c7" x="40.085" y="320.531306" style="stroke: #000000; stroke-width: 0.8"/>
      </g>
     </g>
     <g id="text_4">
      <!-- 0.0 -->
      <g transform="translate(20.575 323.759353) scale(0.09 -0.09)">
       <defs>
        <path id="Helvetica-30" d="M 1731 4475 
Q 2600 4475 2988 3759 
Q 3288 3206 3288 2244 
Q 3288 1331 3016 734 
Q 2622 -122 1728 -122 
Q 922 -122 528 578 
Q 200 1163 200 2147 
Q 200 2909 397 3456 
Q 766 4475 1731 4475 
z
M 1725 391 
Q 2163 391 2422 778 
Q 2681 1166 2681 2222 
Q 2681 2984 2493 3476 
Q 2306 3969 1766 3969 
Q 1269 3969 1039 3501 
Q 809 3034 809 2125 
Q 809 1441 956 1025 
Q 1181 391 1725 391 
z
" transform="scale(0.015625)"/>
        <path id="Helvetica-2e" d="M 547 681 
L 1200 681 
L 1200 0 
L 547 0 
L 547 681 
z
" transform="scale(0.015625)"/>
       </defs>
       <use xlink:href="#Helvetica-30"/>
       <use xlink:href="#Helvetica-2e" transform="translate(55.615234 0)"/>
       <use xlink:href="#Helvetica-30" transform="translate(83.398438 0)"/>
      </g>
     </g>
    </g>
    <g id="ytick_2">
     <g id="line2d_9">
      <path d="M 40.085 274.405226 
L 570.185 274.405226 
" clip-path="url(#pa7e205ac75)" style="fill: none; stroke-dasharray: 2.96,1.28; stroke-dashoffset: 0; stroke: #b0b0b0; stroke-opacity: 0.25; stroke-width: 0.8"/>
     </g>
     <g id="line2d_10">
      <g>
       <use xlink:href="#m100f9b59c7" x="40.085" y="274.405226" style="stroke: #000000; stroke-width: 0.8"/>
      </g>
     </g>
     <g id="text_5">
      <!-- 0.2 -->
      <g transform="translate(20.575 277.633273) scale(0.09 -0.09)">
       <use xlink:href="#Helvetica-30"/>
       <use xlink:href="#Helvetica-2e" transform="translate(55.615234 0)"/>
       <use xlink:href="#Helvetica-32" transform="translate(83.398438 0)"/>
      </g>
     </g>
    </g>
    <g id="ytick_3">
     <g id="line2d_11">
      <path d="M 40.085 228.279146 
L 570.185 228.279146 
" clip-path="url(#pa7e205ac75)" style="fill: none; stroke-dasharray: 2.96,1.28; stroke-dashoffset: 0; stroke: #b0b0b0; stroke-opacity: 0.25; stroke-width: 0.8"/>
     </g>
     <g id="line2d_12">
      <g>
       <use xlink:href="#m100f9b59c7" x="40.085" y="228.279146" style="stroke: #000000; stroke-width: 0.8"/>
      </g>
     </g>
     <g id="text_6">
      <!-- 0.4 -->
      <g transform="translate(20.575 231.507193) scale(0.09 -0.09)">
       <use xlink:href="#Helvetica-30"/>
       <use xlink:href="#Helvetica-2e" transform="translate(55.615234 0)"/>
       <use xlink:href="#Helvetica-34" transform="translate(83.398438 0)"/>
      </g>
     </g>
    </g>
    <g id="ytick_4">
     <g id="line2d_13">
      <path d="M 40.085 182.153066 
L 570.185 182.153066 
" clip-path="url(#pa7e205ac75)" style="fill: none; stroke-dasharray: 2.96,1.28; stroke-dashoffset: 0; stroke: #b0b0b0; stroke-opacity: 0.25; stroke-width: 0.8"/>
     </g>
     <g id="line2d_14">
      <g>
       <use xlink:href="#m100f9b59c7" x="40.085" y="182.153066" style="stroke: #000000; stroke-width: 0.8"/>
      </g>
     </g>
     <g id="text_7">
      <!-- 0.6 -->
      <g transform="translate(20.575 185.381113) scale(0.09 -0.09)">
       <use xlink:href="#Helvetica-30"/>
       <use xlink:href="#Helvetica-2e" transform="translate(55.615234 0)"/>
       <use xlink:href="#Helvetica-36" transform="translate(83.398438 0)"/>
      </g>
     </g>
    </g>
    <g id="ytick_5">
     <g id="line2d_15">
      <path d="M 40.085 136.026986 
L 570.185 136.026986 
" clip-path="url(#pa7e205ac75)" style="fill: none; stroke-dasharray: 2.96,1.28; stroke-dashoffset: 0; stroke: #b0b0b0; stroke-opacity: 0.25; stroke-width: 0.8"/>
     </g>
     <g id="line2d_16">
      <g>
       <use xlink:href="#m100f9b59c7" x="40.085" y="136.026986" style="stroke: #000000; stroke-width: 0.8"/>
      </g>
     </g>
     <g id="text_8">
      <!-- 0.8 -->
      <g transform="translate(20.575 139.255033) scale(0.09 -0.09)">
       <defs>
        <path id="Helvetica-38" d="M 1741 2600 
Q 2113 2600 2322 2808 
Q 2531 3016 2531 3303 
Q 2531 3553 2331 3762 
Q 2131 3972 1722 3972 
Q 1316 3972 1134 3762 
Q 953 3553 953 3272 
Q 953 2956 1187 2778 
Q 1422 2600 1741 2600 
z
M 1775 384 
Q 2166 384 2423 595 
Q 2681 806 2681 1225 
Q 2681 1659 2415 1884 
Q 2150 2109 1734 2109 
Q 1331 2109 1076 1879 
Q 822 1650 822 1244 
Q 822 894 1055 639 
Q 1288 384 1775 384 
z
M 975 2384 
Q 741 2484 609 2619 
Q 363 2869 363 3269 
Q 363 3769 725 4128 
Q 1088 4488 1753 4488 
Q 2397 4488 2762 4148 
Q 3128 3809 3128 3356 
Q 3128 2938 2916 2678 
Q 2797 2531 2547 2391 
Q 2825 2263 2984 2097 
Q 3281 1784 3281 1284 
Q 3281 694 2884 283 
Q 2488 -128 1763 -128 
Q 1109 -128 657 226 
Q 206 581 206 1256 
Q 206 1653 400 1942 
Q 594 2231 975 2384 
z
" transform="scale(0.015625)"/>
       </defs>
       <use xlink:href="#Helvetica-30"/>
       <use xlink:href="#Helvetica-2e" transform="translate(55.615234 0)"/>
       <use xlink:href="#Helvetica-38" transform="translate(83.398438 0)"/>
      </g>
     </g>
    </g>
    <g id="ytick_6">
     <g id="line2d_17">
      <path d="M 40.085 89.900906 
L 570.185 89.900906 
" clip-path="url(#pa7e205ac75)" style="fill: none; stroke-dasharray: 2.96,1.28; stroke-dashoffset: 0; stroke: #b0b0b0; stroke-opacity: 0.25; stroke-width: 0.8"/>
     </g>
     <g id="line2d_18">
      <g>
       <use xlink:href="#m100f9b59c7" x="40.085" y="89.900906" style="stroke: #000000; stroke-width: 0.8"/>
      </g>
     </g>
     <g id="text_9">
      <!-- 1.0 -->
      <g transform="translate(20.575 93.128953) scale(0.09 -0.09)">
       <defs>
        <path id="Helvetica-31" d="M 613 3169 
L 613 3600 
Q 1222 3659 1462 3798 
Q 1703 3938 1822 4456 
L 2266 4456 
L 2266 0 
L 1666 0 
L 1666 3169 
L 613 3169 
z
" transform="scale(0.015625)"/>
       </defs>
       <use xlink:href="#Helvetica-31"/>
       <use xlink:href="#Helvetica-2e" transform="translate(55.615234 0)"/>
       <use xlink:href="#Helvetica-30" transform="translate(83.398438 0)"/>
      </g>
     </g>
    </g>
    <g id="ytick_7">
     <g id="line2d_19">
      <path d="M 40.085 43.774826 
L 570.185 43.774826 
" clip-path="url(#pa7e205ac75)" style="fill: none; stroke-dasharray: 2.96,1.28; stroke-dashoffset: 0; stroke: #b0b0b0; stroke-opacity: 0.25; stroke-width: 0.8"/>
     </g>
     <g id="line2d_20">
      <g>
       <use xlink:href="#m100f9b59c7" x="40.085" y="43.774826" style="stroke: #000000; stroke-width: 0.8"/>
      </g>
     </g>
     <g id="text_10">
      <!-- 1.2 -->
      <g transform="translate(20.575 47.002873) scale(0.09 -0.09)">
       <use xlink:href="#Helvetica-31"/>
       <use xlink:href="#Helvetica-2e" transform="translate(55.615234 0)"/>
       <use xlink:href="#Helvetica-32" transform="translate(83.398438 0)"/>
      </g>
     </g>
    </g>
    <g id="text_11">
     <!-- Mean score per trial (n=18 each) -->
     <g transform="translate(14.490625 248.779494) rotate(-90) scale(0.1 -0.1)">
      <defs>
       <path id="Helvetica-4d" d="M 472 4591 
L 1363 4591 
L 2681 709 
L 3991 4591 
L 4872 4591 
L 4872 0 
L 4281 0 
L 4281 2709 
Q 4281 2850 4287 3175 
Q 4294 3500 4294 3872 
L 2984 0 
L 2369 0 
L 1050 3872 
L 1050 3731 
Q 1050 3563 1058 3217 
Q 1066 2872 1066 2709 
L 1066 0 
L 472 0 
L 472 4591 
z
" transform="scale(0.015625)"/>
       <path id="Helvetica-3d" d="M 3547 2569 
L 3547 2044 
L 288 2044 
L 288 2569 
L 3547 2569 
z
M 3547 1228 
L 3547 694 
L 288 694 
L 288 1228 
L 3547 1228 
z
" transform="scale(0.015625)"/>
      </defs>
      <use xlink:href="#Helvetica-4d"/>
      <use xlink:href="#Helvetica-65" transform="translate(83.300781 0)"/>
      <use xlink:href="#Helvetica-61" transform="translate(138.916016 0)"/>
      <use xlink:href="#Helvetica-6e" transform="translate(194.53125 0)"/>
      <use xlink:href="#Helvetica-20" transform="translate(250.146484 0)"/>
      <use xlink:href="#Helvetica-73" transform="translate(277.929688 0)"/>
      <use xlink:href="#Helvetica-63" transform="translate(327.929688 0)"/>
      <use xlink:href="#Helvetica-6f" transform="translate(377.929688 0)"/>
      <use xlink:href="#Helvetica-72" transform="translate(433.544922 0)"/>
      <use xlink:href="#Helvetica-65" transform="translate(466.845703 0)"/>
      <use xlink:href="#Helvetica-20" transform="translate(522.460938 0)"/>
      <use xlink:href="#Helvetica-70" transform="translate(550.244141 0)"/>
      <use xlink:href="#Helvetica-65" transform="translate(605.859375 0)"/>
      <use xlink:href="#Helvetica-72" transform="translate(661.474609 0)"/>
      <use xlink:href="#Helvetica-20" transform="translate(694.775391 0)"/>
      <use xlink:href="#Helvetica-74" transform="translate(722.558594 0)"/>
      <use xlink:href="#Helvetica-72" transform="translate(750.341797 0)"/>
      <use xlink:href="#Helvetica-69" transform="translate(783.642578 0)"/>
      <use xlink:href="#Helvetica-61" transform="translate(805.859375 0)"/>
      <use xlink:href="#Helvetica-6c" transform="translate(861.474609 0)"/>
      <use xlink:href="#Helvetica-20" transform="translate(883.691406 0)"/>
      <use xlink:href="#Helvetica-28" transform="translate(911.474609 0)"/>
      <use xlink:href="#Helvetica-6e" transform="translate(944.775391 0)"/>
      <use xlink:href="#Helvetica-3d" transform="translate(1000.390625 0)"/>
      <use xlink:href="#Helvetica-31" transform="translate(1058.789062 0)"/>
      <use xlink:href="#Helvetica-38" transform="translate(1114.404297 0)"/>
      <use xlink:href="#Helvetica-20" transform="translate(1170.019531 0)"/>
      <use xlink:href="#Helvetica-65" transform="translate(1197.802734 0)"/>
      <use xlink:href="#Helvetica-61" transform="translate(1253.417969 0)"/>
      <use xlink:href="#Helvetica-63" transform="translate(1309.033203 0)"/>
      <use xlink:href="#Helvetica-68" transform="translate(1359.033203 0)"/>
      <use xlink:href="#Helvetica-29" transform="translate(1414.648438 0)"/>
     </g>
    </g>
   </g>
   <g id="line2d_21">
    <path d="M 40.085 89.900906 
L 570.185 89.900906 
" clip-path="url(#pa7e205ac75)" style="fill: none; stroke-dasharray: 0.8,1.32; stroke-dashoffset: 0; stroke: #808080; stroke-opacity: 0.5; stroke-width: 0.8"/>
   </g>
   <g id="patch_15">
    <path d="M 40.085 320.531306 
L 40.085 32.243306 
" style="fill: none; stroke: #000000; stroke-width: 0.8; stroke-linejoin: miter; stroke-linecap: square"/>
   </g>
   <g id="patch_16">
    <path d="M 40.085 320.531306 
L 570.185 320.531306 
" style="fill: none; stroke: #000000; stroke-width: 0.8; stroke-linejoin: miter; stroke-linecap: square"/>
   </g>
   <g id="text_12">
    <!-- 0.61 -->
    <g style="fill: #444444" transform="translate(72.049687 172.094715) scale(0.083 -0.083)">
     <use xlink:href="#Helvetica-30"/>
     <use xlink:href="#Helvetica-2e" transform="translate(55.615234 0)"/>
     <use xlink:href="#Helvetica-36" transform="translate(83.398438 0)"/>
     <use xlink:href="#Helvetica-31" transform="translate(139.013672 0)"/>
    </g>
   </g>
   <g id="text_13">
    <!-- 0.50 -->
    <g style="fill: #444444" transform="translate(249.222147 197.720315) scale(0.083 -0.083)">
     <defs>
      <path id="Helvetica-35" d="M 791 1141 
Q 847 659 1238 475 
Q 1438 381 1700 381 
Q 2200 381 2440 700 
Q 2681 1019 2681 1406 
Q 2681 1875 2395 2131 
Q 2109 2388 1709 2388 
Q 1419 2388 1211 2275 
Q 1003 2163 856 1963 
L 369 1991 
L 709 4400 
L 3034 4400 
L 3034 3856 
L 1131 3856 
L 941 2613 
Q 1097 2731 1238 2791 
Q 1488 2894 1816 2894 
Q 2431 2894 2859 2497 
Q 3288 2100 3288 1491 
Q 3288 856 2895 371 
Q 2503 -113 1644 -113 
Q 1097 -113 676 195 
Q 256 503 206 1141 
L 791 1141 
z
" transform="scale(0.015625)"/>
     </defs>
     <use xlink:href="#Helvetica-30"/>
     <use xlink:href="#Helvetica-2e" transform="translate(55.615234 0)"/>
     <use xlink:href="#Helvetica-35" transform="translate(83.398438 0)"/>
     <use xlink:href="#Helvetica-30" transform="translate(139.013672 0)"/>
    </g>
   </g>
   <g id="text_14">
    <!-- 0.00 -->
    <g style="fill: #444444" transform="translate(426.394607 313.035515) scale(0.083 -0.083)">
     <use xlink:href="#Helvetica-30"/>
     <use xlink:href="#Helvetica-2e" transform="translate(55.615234 0)"/>
     <use xlink:href="#Helvetica-30" transform="translate(83.398438 0)"/>
     <use xlink:href="#Helvetica-30" transform="translate(139.013672 0)"/>
    </g>
   </g>
   <g id="text_15">
    <!-- 0.94 -->
    <g style="fill: #1f77b4" transform="translate(103.94073 95.217915) scale(0.083 -0.083)">
     <defs>
      <path id="Helvetica-39" d="M 850 1081 
Q 875 616 1209 438 
Q 1381 344 1597 344 
Q 2000 344 2284 680 
Q 2569 1016 2688 2044 
Q 2500 1747 2223 1626 
Q 1947 1506 1628 1506 
Q 981 1506 604 1909 
Q 228 2313 228 2947 
Q 228 3556 600 4018 
Q 972 4481 1697 4481 
Q 2675 4481 3047 3600 
Q 3253 3116 3253 2388 
Q 3253 1566 3006 931 
Q 2597 -125 1619 -125 
Q 963 -125 622 219 
Q 281 563 281 1081 
L 850 1081 
z
M 1703 2000 
Q 2038 2000 2314 2220 
Q 2591 2441 2591 2991 
Q 2591 3484 2342 3726 
Q 2094 3969 1709 3969 
Q 1297 3969 1055 3692 
Q 813 3416 813 2953 
Q 813 2516 1025 2258 
Q 1238 2000 1703 2000 
z
" transform="scale(0.015625)"/>
     </defs>
     <use xlink:href="#Helvetica-30"/>
     <use xlink:href="#Helvetica-2e" transform="translate(55.615234 0)"/>
     <use xlink:href="#Helvetica-39" transform="translate(83.398438 0)"/>
     <use xlink:href="#Helvetica-34" transform="translate(139.013672 0)"/>
    </g>
   </g>
   <g id="text_16">
    <!-- 0.47 -->
    <g style="fill: #1f77b4" transform="translate(281.11319 204.126715) scale(0.083 -0.083)">
     <defs>
      <path id="Helvetica-37" d="M 3347 4400 
L 3347 3909 
Q 3131 3700 2773 3181 
Q 2416 2663 2141 2063 
Q 1869 1478 1728 997 
Q 1638 688 1494 0 
L 872 0 
Q 1084 1281 1809 2550 
Q 2238 3294 2709 3834 
L 234 3834 
L 234 4400 
L 3347 4400 
z
" transform="scale(0.015625)"/>
     </defs>
     <use xlink:href="#Helvetica-30"/>
     <use xlink:href="#Helvetica-2e" transform="translate(55.615234 0)"/>
     <use xlink:href="#Helvetica-34" transform="translate(83.398438 0)"/>
     <use xlink:href="#Helvetica-37" transform="translate(139.013672 0)"/>
    </g>
   </g>
   <g id="text_17">
    <!-- 0.00 -->
    <g style="fill: #1f77b4" transform="translate(458.285649 313.035515) scale(0.083 -0.083)">
     <use xlink:href="#Helvetica-30"/>
     <use xlink:href="#Helvetica-2e" transform="translate(55.615234 0)"/>
     <use xlink:href="#Helvetica-30" transform="translate(83.398438 0)"/>
     <use xlink:href="#Helvetica-30" transform="translate(139.013672 0)"/>
    </g>
   </g>
   <g id="text_18">
    <!-- 0.64 -->
    <g style="fill: #2ca02c" transform="translate(135.831772 165.688315) scale(0.083 -0.083)">
     <use xlink:href="#Helvetica-30"/>
     <use xlink:href="#Helvetica-2e" transform="translate(55.615234 0)"/>
     <use xlink:href="#Helvetica-36" transform="translate(83.398438 0)"/>
     <use xlink:href="#Helvetica-34" transform="translate(139.013672 0)"/>
    </g>
   </g>
   <g id="text_19">
    <!-- 0.56 -->
    <g style="fill: #2ca02c" transform="translate(313.004232 184.907515) scale(0.083 -0.083)">
     <use xlink:href="#Helvetica-30"/>
     <use xlink:href="#Helvetica-2e" transform="translate(55.615234 0)"/>
     <use xlink:href="#Helvetica-35" transform="translate(83.398438 0)"/>
     <use xlink:href="#Helvetica-36" transform="translate(139.013672 0)"/>
    </g>
   </g>
   <g id="text_20">
    <!-- 0.67 -->
    <g style="fill: #2ca02c" transform="translate(490.176692 159.281915) scale(0.083 -0.083)">
     <use xlink:href="#Helvetica-30"/>
     <use xlink:href="#Helvetica-2e" transform="translate(55.615234 0)"/>
     <use xlink:href="#Helvetica-36" transform="translate(83.398438 0)"/>
     <use xlink:href="#Helvetica-37" transform="translate(139.013672 0)"/>
    </g>
   </g>
   <g id="text_21">
    <!-- 0.97 -->
    <g style="fill: #d62728" transform="translate(167.722815 88.811515) scale(0.083 -0.083)">
     <use xlink:href="#Helvetica-30"/>
     <use xlink:href="#Helvetica-2e" transform="translate(55.615234 0)"/>
     <use xlink:href="#Helvetica-39" transform="translate(83.398438 0)"/>
     <use xlink:href="#Helvetica-37" transform="translate(139.013672 0)"/>
    </g>
   </g>
   <g id="text_22">
    <!-- 0.61 -->
    <g style="fill: #d62728" transform="translate(344.895275 172.094715) scale(0.083 -0.083)">
     <use xlink:href="#Helvetica-30"/>
     <use xlink:href="#Helvetica-2e" transform="translate(55.615234 0)"/>
     <use xlink:href="#Helvetica-36" transform="translate(83.398438 0)"/>
     <use xlink:href="#Helvetica-31" transform="translate(139.013672 0)"/>
    </g>
   </g>
   <g id="text_23">
    <!-- 0.61 -->
    <g style="fill: #d62728" transform="translate(522.067735 172.094715) scale(0.083 -0.083)">
     <use xlink:href="#Helvetica-30"/>
     <use xlink:href="#Helvetica-2e" transform="translate(55.615234 0)"/>
     <use xlink:href="#Helvetica-36" transform="translate(83.398438 0)"/>
     <use xlink:href="#Helvetica-31" transform="translate(139.013672 0)"/>
    </g>
   </g>
   <g id="patch_17">
    <path d="M 228.482786 27.746613 
Q 202.821036 55.525014 177.917947 82.482176 
" style="fill: none; stroke: #d62728; stroke-linecap: round"/>
    <path d="M 181.473791 81.138313 
L 177.917947 82.482176 
L 178.976363 78.831182 
" style="fill: none; stroke: #d62728; stroke-linecap: round"/>
   </g>
   <g id="text_24">
    <!-- +0.36 -->
    <g style="fill: #d62728" transform="translate(207.690147 13.297422) scale(0.085 -0.085)">
     <defs>
      <path id="Helvetica-33" d="M 1663 -122 
Q 869 -122 511 314 
Q 153 750 153 1375 
L 741 1375 
Q 778 941 903 744 
Q 1122 391 1694 391 
Q 2138 391 2406 628 
Q 2675 866 2675 1241 
Q 2675 1703 2392 1887 
Q 2109 2072 1606 2072 
Q 1550 2072 1492 2070 
Q 1434 2069 1375 2066 
L 1375 2563 
Q 1463 2553 1522 2550 
Q 1581 2547 1650 2547 
Q 1966 2547 2169 2647 
Q 2525 2822 2525 3272 
Q 2525 3606 2287 3787 
Q 2050 3969 1734 3969 
Q 1172 3969 956 3594 
Q 838 3388 822 3006 
L 266 3006 
Q 266 3506 466 3856 
Q 809 4481 1675 4481 
Q 2359 4481 2734 4176 
Q 3109 3872 3109 3294 
Q 3109 2881 2888 2625 
Q 2750 2466 2531 2375 
Q 2884 2278 3082 2001 
Q 3281 1725 3281 1325 
Q 3281 684 2859 281 
Q 2438 -122 1663 -122 
z
" transform="scale(0.015625)"/>
     </defs>
     <use xlink:href="#Helvetica-2b"/>
     <use xlink:href="#Helvetica-30" transform="translate(58.398438 0)"/>
     <use xlink:href="#Helvetica-2e" transform="translate(114.013672 0)"/>
     <use xlink:href="#Helvetica-33" transform="translate(141.796875 0)"/>
     <use xlink:href="#Helvetica-36" transform="translate(197.412109 0)"/>
    </g>
    <!-- (chain split fixed) -->
    <g style="fill: #d62728" transform="translate(207.690147 22.505578) scale(0.085 -0.085)">
     <defs>
      <path id="Helvetica-66" d="M 553 3856 
Q 566 4206 675 4369 
Q 872 4656 1434 4656 
Q 1488 4656 1544 4653 
Q 1600 4650 1672 4644 
L 1672 4131 
Q 1584 4138 1545 4139 
Q 1506 4141 1472 4141 
Q 1216 4141 1166 4008 
Q 1116 3875 1116 3331 
L 1672 3331 
L 1672 2888 
L 1109 2888 
L 1109 0 
L 553 0 
L 553 2888 
L 88 2888 
L 88 3331 
L 553 3331 
L 553 3856 
z
" transform="scale(0.015625)"/>
      <path id="Helvetica-78" d="M 94 3347 
L 822 3347 
L 1591 2169 
L 2369 3347 
L 3053 3331 
L 1925 1716 
L 3103 0 
L 2384 0 
L 1553 1256 
L 747 0 
L 34 0 
L 1213 1716 
L 94 3347 
z
" transform="scale(0.015625)"/>
      <path id="Helvetica-64" d="M 769 1634 
Q 769 1097 997 734 
Q 1225 372 1728 372 
Q 2119 372 2370 708 
Q 2622 1044 2622 1672 
Q 2622 2306 2362 2611 
Q 2103 2916 1722 2916 
Q 1297 2916 1033 2591 
Q 769 2266 769 1634 
z
M 1616 3406 
Q 2000 3406 2259 3244 
Q 2409 3150 2600 2916 
L 2600 4606 
L 3141 4606 
L 3141 0 
L 2634 0 
L 2634 466 
Q 2438 156 2169 18 
Q 1900 -119 1553 -119 
Q 994 -119 584 351 
Q 175 822 175 1603 
Q 175 2334 548 2870 
Q 922 3406 1616 3406 
z
" transform="scale(0.015625)"/>
     </defs>
     <use xlink:href="#Helvetica-28"/>
     <use xlink:href="#Helvetica-63" transform="translate(33.300781 0)"/>
     <use xlink:href="#Helvetica-68" transform="translate(83.300781 0)"/>
     <use xlink:href="#Helvetica-61" transform="translate(138.916016 0)"/>
     <use xlink:href="#Helvetica-69" transform="translate(194.53125 0)"/>
     <use xlink:href="#Helvetica-6e" transform="translate(216.748047 0)"/>
     <use xlink:href="#Helvetica-20" transform="translate(272.363281 0)"/>
     <use xlink:href="#Helvetica-73" transform="translate(300.146484 0)"/>
     <use xlink:href="#Helvetica-70" transform="translate(350.146484 0)"/>
     <use xlink:href="#Helvetica-6c" transform="translate(405.761719 0)"/>
     <use xlink:href="#Helvetica-69" transform="translate(427.978516 0)"/>
     <use xlink:href="#Helvetica-74" transform="translate(450.195312 0)"/>
     <use xlink:href="#Helvetica-20" transform="translate(477.978516 0)"/>
     <use xlink:href="#Helvetica-66" transform="translate(505.761719 0)"/>
     <use xlink:href="#Helvetica-69" transform="translate(533.544922 0)"/>
     <use xlink:href="#Helvetica-78" transform="translate(555.761719 0)"/>
     <use xlink:href="#Helvetica-65" transform="translate(605.761719 0)"/>
     <use xlink:href="#Helvetica-64" transform="translate(661.376953 0)"/>
     <use xlink:href="#Helvetica-29" transform="translate(716.992188 0)"/>
    </g>
   </g>
   <g id="patch_18">
    <path d="M 581.457154 111.049134 
Q 556.469251 138.811165 532.229307 165.742197 
" style="fill: none; stroke: #d62728; stroke-linecap: round"/>
    <path d="M 535.767445 164.352384 
L 532.229307 165.742197 
L 533.240339 162.077799 
" style="fill: none; stroke: #d62728; stroke-linecap: round"/>
   </g>
   <g id="text_25">
    <!-- +0.61 -->
    <g style="fill: #d62728" transform="translate(562.035067 96.625247) scale(0.085 -0.085)">
     <use xlink:href="#Helvetica-2b"/>
     <use xlink:href="#Helvetica-30" transform="translate(58.398438 0)"/>
     <use xlink:href="#Helvetica-2e" transform="translate(114.013672 0)"/>
     <use xlink:href="#Helvetica-36" transform="translate(141.796875 0)"/>
     <use xlink:href="#Helvetica-31" transform="translate(197.412109 0)"/>
    </g>
    <!-- (over-call fixed!) -->
    <g style="fill: #d62728" transform="translate(562.035067 105.788778) scale(0.085 -0.085)">
     <defs>
      <path id="Helvetica-21" d="M 741 4591 
L 1375 4591 
L 1375 3081 
L 1222 1094 
L 903 1094 
L 741 3081 
L 741 4591 
z
M 741 650 
L 1363 650 
L 1363 0 
L 741 0 
L 741 650 
z
" transform="scale(0.015625)"/>
     </defs>
     <use xlink:href="#Helvetica-28"/>
     <use xlink:href="#Helvetica-6f" transform="translate(33.300781 0)"/>
     <use xlink:href="#Helvetica-76" transform="translate(88.916016 0)"/>
     <use xlink:href="#Helvetica-65" transform="translate(138.916016 0)"/>
     <use xlink:href="#Helvetica-72" transform="translate(194.53125 0)"/>
     <use xlink:href="#Helvetica-2d" transform="translate(227.832031 0)"/>
     <use xlink:href="#Helvetica-63" transform="translate(261.132812 0)"/>
     <use xlink:href="#Helvetica-61" transform="translate(311.132812 0)"/>
     <use xlink:href="#Helvetica-6c" transform="translate(366.748047 0)"/>
     <use xlink:href="#Helvetica-6c" transform="translate(388.964844 0)"/>
     <use xlink:href="#Helvetica-20" transform="translate(411.181641 0)"/>
     <use xlink:href="#Helvetica-66" transform="translate(438.964844 0)"/>
     <use xlink:href="#Helvetica-69" transform="translate(466.748047 0)"/>
     <use xlink:href="#Helvetica-78" transform="translate(488.964844 0)"/>
     <use xlink:href="#Helvetica-65" transform="translate(538.964844 0)"/>
     <use xlink:href="#Helvetica-64" transform="translate(594.580078 0)"/>
     <use xlink:href="#Helvetica-21" transform="translate(650.195312 0)"/>
     <use xlink:href="#Helvetica-29" transform="translate(677.978516 0)"/>
    </g>
   </g>
   <g id="text_26">
    <!-- ceiling -->
    <g style="fill: #808080" transform="translate(535.459198 85.288298) scale(0.08 -0.08)">
     <use xlink:href="#Helvetica-63"/>
     <use xlink:href="#Helvetica-65" transform="translate(50 0)"/>
     <use xlink:href="#Helvetica-69" transform="translate(105.615234 0)"/>
     <use xlink:href="#Helvetica-6c" transform="translate(127.832031 0)"/>
     <use xlink:href="#Helvetica-69" transform="translate(150.048828 0)"/>
     <use xlink:href="#Helvetica-6e" transform="translate(172.265625 0)"/>
     <use xlink:href="#Helvetica-67" transform="translate(227.880859 0)"/>
    </g>
   </g>
   <g id="text_27">
    <!-- Targeted prompt mitigations on 3 universal failures · 9 providers × 2 trials -->
    <g transform="translate(111.223437 26.243306) scale(0.12 -0.12)">
     <defs>
      <path id="Helvetica-b7" d="M 872 2591 
Q 1041 2591 1156 2473 
Q 1272 2356 1272 2191 
Q 1272 2025 1155 1908 
Q 1038 1791 872 1791 
Q 706 1791 589 1908 
Q 472 2025 472 2191 
Q 472 2356 587 2473 
Q 703 2591 872 2591 
z
" transform="scale(0.015625)"/>
      <path id="Helvetica-d7" d="M 363 2822 
L 731 3191 
L 1916 2006 
L 3103 3191 
L 3481 2822 
L 2294 1634 
L 3481 450 
L 3103 72 
L 1916 1256 
L 731 72 
L 363 450 
L 1547 1634 
L 363 2822 
z
" transform="scale(0.015625)"/>
     </defs>
     <use xlink:href="#Helvetica-54"/>
     <use xlink:href="#Helvetica-61" transform="translate(61.083984 0)"/>
     <use xlink:href="#Helvetica-72" transform="translate(116.699219 0)"/>
     <use xlink:href="#Helvetica-67" transform="translate(150 0)"/>
     <use xlink:href="#Helvetica-65" transform="translate(205.615234 0)"/>
     <use xlink:href="#Helvetica-74" transform="translate(261.230469 0)"/>
     <use xlink:href="#Helvetica-65" transform="translate(289.013672 0)"/>
     <use xlink:href="#Helvetica-64" transform="translate(344.628906 0)"/>
     <use xlink:href="#Helvetica-20" transform="translate(400.244141 0)"/>
     <use xlink:href="#Helvetica-70" transform="translate(428.027344 0)"/>
     <use xlink:href="#Helvetica-72" transform="translate(483.642578 0)"/>
     <use xlink:href="#Helvetica-6f" transform="translate(516.943359 0)"/>
     <use xlink:href="#Helvetica-6d" transform="translate(572.558594 0)"/>
     <use xlink:href="#Helvetica-70" transform="translate(655.859375 0)"/>
     <use xlink:href="#Helvetica-74" transform="translate(711.474609 0)"/>
     <use xlink:href="#Helvetica-20" transform="translate(739.257812 0)"/>
     <use xlink:href="#Helvetica-6d" transform="translate(767.041016 0)"/>
     <use xlink:href="#Helvetica-69" transform="translate(850.341797 0)"/>
     <use xlink:href="#Helvetica-74" transform="translate(872.558594 0)"/>
     <use xlink:href="#Helvetica-69" transform="translate(900.341797 0)"/>
     <use xlink:href="#Helvetica-67" transform="translate(922.558594 0)"/>
     <use xlink:href="#Helvetica-61" transform="translate(978.173828 0)"/>
     <use xlink:href="#Helvetica-74" transform="translate(1033.789062 0)"/>
     <use xlink:href="#Helvetica-69" transform="translate(1061.572266 0)"/>
     <use xlink:href="#Helvetica-6f" transform="translate(1083.789062 0)"/>
     <use xlink:href="#Helvetica-6e" transform="translate(1139.404297 0)"/>
     <use xlink:href="#Helvetica-73" transform="translate(1195.019531 0)"/>
     <use xlink:href="#Helvetica-20" transform="translate(1245.019531 0)"/>
     <use xlink:href="#Helvetica-6f" transform="translate(1272.802734 0)"/>
     <use xlink:href="#Helvetica-6e" transform="translate(1328.417969 0)"/>
     <use xlink:href="#Helvetica-20" transform="translate(1384.033203 0)"/>
     <use xlink:href="#Helvetica-33" transform="translate(1411.816406 0)"/>
     <use xlink:href="#Helvetica-20" transform="translate(1467.431641 0)"/>
     <use xlink:href="#Helvetica-75" transform="translate(1495.214844 0)"/>
     <use xlink:href="#Helvetica-6e" transform="translate(1550.830078 0)"/>
     <use xlink:href="#Helvetica-69" transform="translate(1606.445312 0)"/>
     <use xlink:href="#Helvetica-76" transform="translate(1628.662109 0)"/>
     <use xlink:href="#Helvetica-65" transform="translate(1678.662109 0)"/>
     <use xlink:href="#Helvetica-72" transform="translate(1734.277344 0)"/>
     <use xlink:href="#Helvetica-73" transform="translate(1767.578125 0)"/>
     <use xlink:href="#Helvetica-61" transform="translate(1817.578125 0)"/>
     <use xlink:href="#Helvetica-6c" transform="translate(1873.193359 0)"/>
     <use xlink:href="#Helvetica-20" transform="translate(1895.410156 0)"/>
     <use xlink:href="#Helvetica-66" transform="translate(1923.193359 0)"/>
     <use xlink:href="#Helvetica-61" transform="translate(1950.976562 0)"/>
     <use xlink:href="#Helvetica-69" transform="translate(2006.591797 0)"/>
     <use xlink:href="#Helvetica-6c" transform="translate(2028.808594 0)"/>
     <use xlink:href="#Helvetica-75" transform="translate(2051.025391 0)"/>
     <use xlink:href="#Helvetica-72" transform="translate(2106.640625 0)"/>
     <use xlink:href="#Helvetica-65" transform="translate(2139.941406 0)"/>
     <use xlink:href="#Helvetica-73" transform="translate(2195.556641 0)"/>
     <use xlink:href="#Helvetica-20" transform="translate(2245.556641 0)"/>
     <use xlink:href="#Helvetica-b7" transform="translate(2273.339844 0)"/>
     <use xlink:href="#Helvetica-20" transform="translate(2301.123047 0)"/>
     <use xlink:href="#Helvetica-39" transform="translate(2328.90625 0)"/>
     <use xlink:href="#Helvetica-20" transform="translate(2384.521484 0)"/>
     <use xlink:href="#Helvetica-70" transform="translate(2412.304688 0)"/>
     <use xlink:href="#Helvetica-72" transform="translate(2467.919922 0)"/>
     <use xlink:href="#Helvetica-6f" transform="translate(2501.220703 0)"/>
     <use xlink:href="#Helvetica-76" transform="translate(2556.835938 0)"/>
     <use xlink:href="#Helvetica-69" transform="translate(2606.835938 0)"/>
     <use xlink:href="#Helvetica-64" transform="translate(2629.052734 0)"/>
     <use xlink:href="#Helvetica-65" transform="translate(2684.667969 0)"/>
     <use xlink:href="#Helvetica-72" transform="translate(2740.283203 0)"/>
     <use xlink:href="#Helvetica-73" transform="translate(2773.583984 0)"/>
     <use xlink:href="#Helvetica-20" transform="translate(2823.583984 0)"/>
     <use xlink:href="#Helvetica-d7" transform="translate(2851.367188 0)"/>
     <use xlink:href="#Helvetica-20" transform="translate(2909.765625 0)"/>
     <use xlink:href="#Helvetica-32" transform="translate(2937.548828 0)"/>
     <use xlink:href="#Helvetica-20" transform="translate(2993.164062 0)"/>
     <use xlink:href="#Helvetica-74" transform="translate(3020.947266 0)"/>
     <use xlink:href="#Helvetica-72" transform="translate(3048.730469 0)"/>
     <use xlink:href="#Helvetica-69" transform="translate(3082.03125 0)"/>
     <use xlink:href="#Helvetica-61" transform="translate(3104.248047 0)"/>
     <use xlink:href="#Helvetica-6c" transform="translate(3159.863281 0)"/>
     <use xlink:href="#Helvetica-73" transform="translate(3182.080078 0)"/>
    </g>
   </g>
   <g id="legend_1">
    <g id="patch_19">
     <path d="M 333.83375 66.434869 
L 563.885 66.434869 
Q 565.685 66.434869 565.685 64.634869 
L 565.685 38.543306 
Q 565.685 36.743306 563.885 36.743306 
L 333.83375 36.743306 
Q 332.03375 36.743306 332.03375 38.543306 
L 332.03375 64.634869 
Q 332.03375 66.434869 333.83375 66.434869 
z
" style="fill: #ffffff; opacity: 0.95; stroke: #cccccc; stroke-linejoin: miter"/>
    </g>
    <g id="patch_20">
     <path d="M 335.63375 46.890806 
L 353.63375 46.890806 
L 353.63375 40.590806 
L 335.63375 40.590806 
z
" style="fill: #aaaaaa; opacity: 0.92; stroke: #ffffff; stroke-width: 0.5; stroke-linejoin: miter"/>
    </g>
    <g id="text_28">
     <!-- M0 baseline -->
     <g transform="translate(360.83375 46.890806) scale(0.09 -0.09)">
      <defs>
       <path id="Helvetica-62" d="M 369 4606 
L 916 4606 
L 916 2941 
Q 1100 3181 1356 3307 
Q 1613 3434 1913 3434 
Q 2538 3434 2927 3004 
Q 3316 2575 3316 1738 
Q 3316 944 2931 419 
Q 2547 -106 1866 -106 
Q 1484 -106 1222 78 
Q 1066 188 888 428 
L 888 0 
L 369 0 
L 369 4606 
z
M 1831 391 
Q 2288 391 2514 753 
Q 2741 1116 2741 1709 
Q 2741 2238 2514 2584 
Q 2288 2931 1847 2931 
Q 1463 2931 1173 2647 
Q 884 2363 884 1709 
Q 884 1238 1003 944 
Q 1225 391 1831 391 
z
" transform="scale(0.015625)"/>
      </defs>
      <use xlink:href="#Helvetica-4d"/>
      <use xlink:href="#Helvetica-30" transform="translate(83.300781 0)"/>
      <use xlink:href="#Helvetica-20" transform="translate(138.916016 0)"/>
      <use xlink:href="#Helvetica-62" transform="translate(166.699219 0)"/>
      <use xlink:href="#Helvetica-61" transform="translate(222.314453 0)"/>
      <use xlink:href="#Helvetica-73" transform="translate(277.929688 0)"/>
      <use xlink:href="#Helvetica-65" transform="translate(327.929688 0)"/>
      <use xlink:href="#Helvetica-6c" transform="translate(383.544922 0)"/>
      <use xlink:href="#Helvetica-69" transform="translate(405.761719 0)"/>
      <use xlink:href="#Helvetica-6e" transform="translate(427.978516 0)"/>
      <use xlink:href="#Helvetica-65" transform="translate(483.59375 0)"/>
     </g>
    </g>
    <g id="patch_21">
     <path d="M 335.63375 59.743931 
L 353.63375 59.743931 
L 353.63375 53.443931 
L 335.63375 53.443931 
z
" style="fill: #1f77b4; opacity: 0.92; stroke: #ffffff; stroke-width: 0.5; stroke-linejoin: miter"/>
    </g>
    <g id="text_29">
     <!-- M1 chain prompt -->
     <g transform="translate(360.83375 59.743931) scale(0.09 -0.09)">
      <use xlink:href="#Helvetica-4d"/>
      <use xlink:href="#Helvetica-31" transform="translate(83.300781 0)"/>
      <use xlink:href="#Helvetica-20" transform="translate(138.916016 0)"/>
      <use xlink:href="#Helvetica-63" transform="translate(166.699219 0)"/>
      <use xlink:href="#Helvetica-68" transform="translate(216.699219 0)"/>
      <use xlink:href="#Helvetica-61" transform="translate(272.314453 0)"/>
      <use xlink:href="#Helvetica-69" transform="translate(327.929688 0)"/>
      <use xlink:href="#Helvetica-6e" transform="translate(350.146484 0)"/>
      <use xlink:href="#Helvetica-20" transform="translate(405.761719 0)"/>
      <use xlink:href="#Helvetica-70" transform="translate(433.544922 0)"/>
      <use xlink:href="#Helvetica-72" transform="translate(489.160156 0)"/>
      <use xlink:href="#Helvetica-6f" transform="translate(522.460938 0)"/>
      <use xlink:href="#Helvetica-6d" transform="translate(578.076172 0)"/>
      <use xlink:href="#Helvetica-70" transform="translate(661.376953 0)"/>
      <use xlink:href="#Helvetica-74" transform="translate(716.992188 0)"/>
     </g>
    </g>
    <g id="patch_22">
     <path d="M 445.858438 46.890806 
L 463.858438 46.890806 
L 463.858438 40.590806 
L 445.858438 40.590806 
z
" style="fill: #2ca02c; opacity: 0.92; stroke: #ffffff; stroke-width: 0.5; stroke-linejoin: miter"/>
    </g>
    <g id="text_30">
     <!-- M2 parametric pref -->
     <g transform="translate(471.058438 46.890806) scale(0.09 -0.09)">
      <use xlink:href="#Helvetica-4d"/>
      <use xlink:href="#Helvetica-32" transform="translate(83.300781 0)"/>
      <use xlink:href="#Helvetica-20" transform="translate(138.916016 0)"/>
      <use xlink:href="#Helvetica-70" transform="translate(166.699219 0)"/>
      <use xlink:href="#Helvetica-61" transform="translate(222.314453 0)"/>
      <use xlink:href="#Helvetica-72" transform="translate(277.929688 0)"/>
      <use xlink:href="#Helvetica-61" transform="translate(311.230469 0)"/>
      <use xlink:href="#Helvetica-6d" transform="translate(366.845703 0)"/>
      <use xlink:href="#Helvetica-65" transform="translate(450.146484 0)"/>
      <use xlink:href="#Helvetica-74" transform="translate(505.761719 0)"/>
      <use xlink:href="#Helvetica-72" transform="translate(533.544922 0)"/>
      <use xlink:href="#Helvetica-69" transform="translate(566.845703 0)"/>
      <use xlink:href="#Helvetica-63" transform="translate(589.0625 0)"/>
      <use xlink:href="#Helvetica-20" transform="translate(639.0625 0)"/>
      <use xlink:href="#Helvetica-70" transform="translate(666.845703 0)"/>
      <use xlink:href="#Helvetica-72" transform="translate(722.460938 0)"/>
      <use xlink:href="#Helvetica-65" transform="translate(755.761719 0)"/>
      <use xlink:href="#Helvetica-66" transform="translate(811.376953 0)"/>
     </g>
    </g>
    <g id="patch_23">
     <path d="M 445.858438 60.958931 
L 463.858438 60.958931 
L 463.858438 54.658931 
L 445.858438 54.658931 
z
" style="fill: #d62728; opacity: 0.92; stroke: #ffffff; stroke-width: 0.5; stroke-linejoin: miter"/>
    </g>
    <g id="text_31">
     <!-- M3 combined (★ best) -->
     <g transform="translate(471.058438 60.958931) scale(0.09 -0.09)">
      <defs>
       <path id="HiraginoSansGB-W3-2605" d="M 3200 5498 
L 2451 3194 
L 90 3194 
L 1990 1766 
L 1261 -499 
L 3200 902 
L 5133 -499 
L 4410 1766 
L 6304 3194 
L 3942 3194 
L 3200 5498 
z
" transform="scale(0.015625)"/>
      </defs>
      <use xlink:href="#Helvetica-4d"/>
      <use xlink:href="#Helvetica-33" transform="translate(83.300781 0)"/>
      <use xlink:href="#Helvetica-20" transform="translate(138.916016 0)"/>
      <use xlink:href="#Helvetica-63" transform="translate(166.699219 0)"/>
      <use xlink:href="#Helvetica-6f" transform="translate(216.699219 0)"/>
      <use xlink:href="#Helvetica-6d" transform="translate(272.314453 0)"/>
      <use xlink:href="#Helvetica-62" transform="translate(355.615234 0)"/>
      <use xlink:href="#Helvetica-69" transform="translate(411.230469 0)"/>
      <use xlink:href="#Helvetica-6e" transform="translate(433.447266 0)"/>
      <use xlink:href="#Helvetica-65" transform="translate(489.0625 0)"/>
      <use xlink:href="#Helvetica-64" transform="translate(544.677734 0)"/>
      <use xlink:href="#Helvetica-20" transform="translate(600.292969 0)"/>
      <use xlink:href="#Helvetica-28" transform="translate(628.076172 0)"/>
      <use xlink:href="#HiraginoSansGB-W3-2605" transform="translate(661.376953 0)"/>
      <use xlink:href="#Helvetica-20" transform="translate(761.376938 0)"/>
      <use xlink:href="#Helvetica-62" transform="translate(789.160141 0)"/>
      <use xlink:href="#Helvetica-65" transform="translate(844.775375 0)"/>
      <use xlink:href="#Helvetica-73" transform="translate(900.39061 0)"/>
      <use xlink:href="#Helvetica-74" transform="translate(950.39061 0)"/>
      <use xlink:href="#Helvetica-29" transform="translate(978.173813 0)"/>
     </g>
    </g>
   </g>
  </g>
 </g>
 <defs>
  <clipPath id="pa7e205ac75">
   <rect x="40.085" y="32.243306" width="530.1" height="288.288"/>
  </clipPath>
 </defs>
</svg>
